<?xml version="1.0" encoding="UTF-8"?>
<!DOCTYPE svg PUBLIC "-//W3C//DTD SVG 1.1//EN" "http://www.w3.org/Graphics/SVG/1.1/DTD/svg11.dtd">
<!-- Creator: CorelDRAW X6 -->
<svg xmlns="http://www.w3.org/2000/svg" xml:space="preserve" width="1920px" height="1140px" version="1.1" style="shape-rendering:geometricPrecision; text-rendering:geometricPrecision; image-rendering:optimizeQuality; fill-rule:evenodd; clip-rule:evenodd"
viewBox="0 0 1920 1140"
 xmlns:xlink="http://www.w3.org/1999/xlink"
 baseProfile="tiny"
 xmlns:svg="http://www.w3.org/2000/svg">
 <defs>
  <style type="text/css">
   <![CDATA[
    .str0 {stroke:#E6E6E6;stroke-width:0.864001}
    .fil1 {fill:#1F2D76}
    .fil2 {fill:#F0F0F0}
    .fil0 {fill:#D9EFFB;fill-opacity:0.400000}
   ]]>
  </style>
 </defs>
 <g id="Layer_x0020_2">
  <metadata id="CorelCorpID_0Corel-Layer"/>
  <polygon class="fil0" points="0,0 1920,0 1920,1140 0,1140 "/>
 </g>
 <g id="Layer_x0020_1">
  <metadata id="CorelCorpID_1Corel-Layer"/>
  <polygon id="kalimantan" class="fil1" points="1537,686 1532,704 1506,713 1499,704 1495,705 1502,732 1512,733 1526,738 1526,744 1533,743 1542,730 1542,719 1547,708 1553,710 1546,695 1545,685 1537,686 "/>
  <polygon id="mexico" class="fil1" points="208,482 218,513 213,516 214,522 222,529 222,542 233,552 229,521 222,501 224,487 229,487 231,492 229,504 256,557 256,575 278,601 301,612 311,606 325,617 333,609 330,600 342,596 345,598 349,595 355,595 365,576 360,572 340,576 335,590 323,592 309,586 303,566 308,542 298,536 294,512 290,510 283,517 275,513 272,497 240,494 223,481 208,482 "/>
  <polygon id="estonia" class="fil1" points="992,313 981,313 974,317 973,321 978,325 993,328 992,313 "/>
  <polygon id="algeria" class="fil2" points="902,486 894,484 858,490 851,496 856,520 842,521 833,534 813,539 813,549 879,599 890,600 928,571 924,566 917,565 913,558 913,529 910,526 910,518 903,511 902,503 905,500 904,492 902,486 "/>
  <polygon id="morocco" class="fil1" points="849,496 825,496 821,507 810,512 801,536 784,546 759,586 783,586 784,574 790,574 790,558 811,558 812,537 832,532 840,519 853,518 849,496 "/>
  <polygon id="senegal" class="fil1" points="770,616 762,622 760,625 760,628 763,631 773,630 779,629 780,632 779,636 785,639 787,641 795,641 795,637 788,628 779,617 774,615 770,616 "/>
  <polygon id="liberia" class="fil1" points="791,676 814,691 813,679 806,671 800,665 791,676 "/>
  <polygon id="burkina" class="fil1" points="854,624 861,624 874,641 862,650 854,647 843,648 841,654 832,655 829,651 832,641 854,624 "/>
  <polygon id="ghana" class="fil1" points="841,671 843,677 849,686 853,686 862,681 861,651 854,649 844,649 841,671 "/>
  <polygon id="togo" class="fil1" points="863,680 869,677 869,655 865,649 863,651 863,680 "/>
  <polygon id="benin" class="fil1" points="871,676 875,676 875,664 881,656 881,642 876,642 867,648 870,655 871,676 "/>
  <polygon id="nigeria" class="fil1" points="877,676 885,676 894,687 899,688 903,687 908,686 910,678 918,673 926,673 942,644 941,638 934,633 920,639 901,639 892,633 886,634 883,640 882,657 877,664 877,676 "/>
  <polygon id="tunisia" class="fil1" points="904,486 915,481 919,484 919,487 918,489 918,493 920,494 920,501 918,505 918,507 926,510 919,519 917,519 917,527 914,527 912,525 912,517 905,510 904,504 907,501 904,486 "/>
  <polygon id="egypt" class="fil1" points="1001,518 1007,519 1017,522 1022,522 1029,516 1032,516 1037,519 1044,519 1045,519 1049,532 1051,536 1052,542 1050,543 1046,541 1042,528 1039,528 1038,532 1041,540 1060,564 1060,574 1055,581 1002,580 1001,518 "/>
  <polygon id="cameroon" class="fil1" points="910,686 917,692 916,702 953,701 956,697 945,686 944,682 950,670 946,661 942,659 942,655 946,652 947,639 943,639 943,646 928,674 918,675 912,679 910,686 "/>
  <polygon id="ethiopia" class="fil1" points="1058,660 1073,627 1088,627 1101,638 1100,648 1110,648 1111,654 1128,663 1138,664 1119,685 1092,693 1085,693 1074,683 1069,681 1060,668 1054,668 1053,662 1058,660 "/>
  <polygon id="gabon" class="fil1" points="928,703 927,708 916,708 909,722 925,740 930,737 929,733 927,732 927,729 933,725 939,730 945,730 945,708 935,708 935,703 928,703 "/>
  <polygon id="rwanda" class="fil1" points="1034,718 1040,724 1039,729 1030,730 1030,723 1034,718 "/>
  <polygon id="uganda" class="fil1" points="1035,717 1041,722 1045,720 1056,718 1057,718 1058,714 1064,702 1059,691 1043,691 1043,696 1045,698 1044,702 1035,717 "/>
  <polygon id="kenya" class="fil1" points="1061,691 1066,701 1060,715 1059,719 1092,740 1102,724 1097,720 1097,698 1103,691 1093,695 1085,695 1073,685 1069,683 1062,684 1061,686 1061,691 "/>
  <polygon id="mozambique" class="fil1" points="1041,870 1046,874 1059,866 1061,854 1061,835 1082,818 1086,818 1099,806 1097,781 1063,785 1064,792 1070,797 1071,811 1060,822 1057,815 1058,807 1051,800 1035,808 1050,815 1051,837 1041,852 1041,870 "/>
  <polygon id="namibia" class="fil1" points="949,888 956,888 960,892 969,892 972,865 972,847 978,846 980,827 996,827 1001,822 992,822 979,823 966,818 927,818 928,829 941,848 939,858 939,863 949,888 "/>
  <polygon id="botswana" class="fil2" points="973,865 978,867 977,880 982,880 992,871 1005,872 1008,864 1024,849 1005,827 1005,823 1003,823 997,828 982,828 980,847 974,849 973,865 "/>
  <path id="south_x0020_africa" class="fil1" d="M1026 850l-16 15 -4 9 -13 -2 -11 10 -7 -1 1 -13 -3 -1 -2 27 -13 0 -4 -4 -6 0 5 15 9 9 -6 8 4 9 10 4 8 -7 22 0 2 -2 10 -2 33 -33 0 -10 -4 5 -5 0 -6 -5 3 -8 6 -1 -1 -17 -13 -3 0 0zm-8 38l3 0 5 5 0 6 -6 3 0 2 -9 0 -3 -7 3 -5 8 -5 0 0z"/>
  <polygon id="australia" class="fil2" points="1495,900 1494,952 1486,958 1485,963 1496,971 1523,966 1537,966 1542,958 1573,952 1595,959 1593,968 1596,977 1613,974 1614,978 1603,986 1607,989 1615,986 1613,1011 1628,1022 1637,1019 1641,1024 1667,1020 1691,981 1700,979 1717,946 1722,918 1711,904 1715,901 1706,874 1697,868 1698,831 1689,824 1687,803 1683,803 1668,852 1660,853 1642,834 1652,807 1633,803 1612,809 1606,826 1596,828 1596,817 1557,840 1558,849 1552,857 1537,857 1506,870 1495,900 "/>
  <polygon id="sumatra" class="fil1" points="1415,672 1414,677 1428,700 1432,700 1462,749 1473,750 1479,733 1470,728 1468,718 1415,672 "/>
  <polygon id="east_x0020_malaysia" class="fil1" points="1501,704 1507,711 1531,703 1536,685 1546,684 1556,677 1543,668 1540,662 1534,674 1537,681 1533,686 1526,684 1508,697 1509,704 1501,704 "/>
  <polygon id="sulawesi" class="fil1" points="1553,737 1558,743 1555,752 1555,753 1562,753 1564,732 1566,732 1570,752 1574,753 1578,745 1574,732 1571,726 1581,720 1579,716 1569,722 1567,722 1563,716 1564,713 1571,709 1583,713 1586,713 1595,705 1591,701 1583,707 1578,707 1571,704 1565,704 1559,714 1555,731 1553,737 "/>
  <polygon id="maluku" class="fil1" points="1604,699 1600,708 1606,716 1608,716 1611,711 1612,709 1610,706 1606,705 1604,699 "/>
  <polygon id="seram" class="fil1" points="1616,730 1608,732 1605,734 1607,738 1613,736 1616,734 1621,738 1623,736 1619,731 1616,730 "/>
  <polygon id="java" class="fil1" points="1478,756 1472,760 1474,763 1492,768 1501,769 1505,773 1515,774 1520,778 1524,777 1528,773 1521,770 1514,764 1498,760 1478,756 "/>
  <polygon id="bali" class="fil1" points="1537,774 1533,777 1535,779 1542,777 1537,774 "/>
  <polygon id="lombok" class="fil1" points="1545,772 1546,776 1550,777 1552,775 1550,772 1545,772 "/>
  <polygon id="sumba" class="fil1" points="1556,782 1550,783 1555,788 1559,788 1556,782 "/>
  <polygon id="flores" class="fil1" points="1558,776 1556,778 1566,780 1573,775 1569,774 1562,776 1560,774 1558,776 "/>
  <polygon id="timor" class="fil1" points="1587,777 1577,786 1578,788 1582,787 1588,782 1598,781 1596,778 1587,777 "/>
  <polygon id="taiwan" class="fil1" points="1549,529 1542,535 1541,546 1548,553 1549,552 1549,529 "/>
  <polygon id="domincan_x0020_republic" class="fil2" points="467,596 456,588 451,587 449,599 451,603 453,600 460,598 466,599 467,596 "/>
  <polygon id="sri_x0020_lanka" class="fil1" points="1328,653 1329,658 1329,662 1326,663 1328,672 1332,675 1339,670 1337,661 1338,657 1331,651 1328,653 "/>
  <polygon id="irian_x0020_jaya" class="fil1" points="1641,717 1632,718 1627,722 1629,727 1638,728 1638,730 1632,735 1635,745 1638,745 1640,735 1645,735 1647,745 1669,764 1670,778 1678,786 1681,786 1682,735 1669,726 1657,734 1652,737 1645,732 1645,718 1641,717 "/>
  <polygon id="guatemala" class="fil1" points="326,618 339,627 351,612 349,609 345,609 345,600 341,598 332,601 335,609 326,618 "/>
  <polygon id="el_x0020_salvador" class="fil2" points="340,628 350,633 350,625 345,622 340,628 "/>
  <polygon id="nicaragua" class="fil2" points="373,620 378,621 378,630 373,645 359,643 356,636 360,627 368,620 373,620 "/>
  <polygon id="costa_x0020_rica" class="fil1" points="373,646 376,652 378,655 375,664 369,660 359,651 359,645 373,646 "/>
  <polygon id="panama" class="fil1" points="379,656 376,665 386,668 392,669 393,662 400,658 406,661 408,665 411,665 413,658 406,655 400,652 395,656 388,659 381,656 379,656 "/>
  <polygon id="colombia" class="fil1" points="448,636 443,635 415,658 412,666 409,667 410,685 400,709 411,718 425,719 434,732 448,733 447,743 452,743 458,724 453,718 454,706 465,705 463,677 440,669 434,654 448,636 "/>
  <polygon id="venezuela" class="fil1" points="441,648 442,654 449,656 450,646 457,638 464,647 481,651 494,648 504,660 511,664 503,676 506,685 501,691 497,694 487,689 484,692 484,699 492,702 486,708 481,714 474,713 467,706 465,676 441,668 436,655 441,648 "/>
  <polygon id="ecuador" class="fil1" points="399,710 389,716 389,725 387,728 393,734 390,737 391,744 402,747 418,727 418,720 410,720 399,710 "/>
  <polygon id="peru" class="fil1" points="388,738 384,742 385,749 420,812 456,836 462,826 463,806 460,793 450,776 444,778 442,781 430,767 433,752 446,743 445,734 431,734 424,722 420,720 421,728 403,749 389,746 388,738 "/>
  <polygon id="bolivia" class="fil1" points="458,786 475,779 481,779 484,795 510,803 514,817 525,818 530,829 526,839 509,841 503,857 489,857 485,856 477,864 473,863 460,833 463,827 465,805 461,792 458,786 "/>
  <polygon id="paraguay" class="fil1" points="526,841 531,846 530,857 543,856 553,869 552,880 546,890 533,890 532,885 536,876 523,868 513,868 505,859 510,842 526,841 "/>
  <polygon id="uruguay" class="fil1" points="544,908 540,913 541,937 555,941 572,924 544,908 "/>
  <polygon id="argentina" class="fil2" points="554,880 558,884 543,906 538,912 540,938 552,952 542,969 534,973 526,973 528,986 515,991 518,1002 510,1027 520,1035 514,1049 505,1063 510,1073 498,1075 489,1063 487,1026 472,964 477,942 467,914 474,877 479,870 478,865 486,858 502,859 512,869 523,870 534,876 531,884 531,892 547,891 554,880 "/>
  <polygon id="tierra_x0020_del_x0020_fuego_x0020_chile" class="fil2 str0" points="512,1078 504,1097 519,1099 519,1086 512,1078 "/>
  <polygon id="tierra_x0020_del_x0020_fuego_x0020_argentina" class="fil2" points="520,1087 521,1099 530,1098 538,1093 525,1091 520,1087 "/>
  <polygon id="chile" class="fil1" points="509,1075 503,1082 502,1091 489,1083 475,1064 471,1057 477,1049 477,1040 470,1038 465,1034 466,1029 473,1027 474,997 464,991 457,837 459,834 472,865 476,865 478,870 472,877 465,914 475,942 470,964 486,1027 487,1064 498,1076 509,1075 "/>
  <polygon id="chiloe" class="fil2" points="465,997 463,1001 464,1008 467,1009 468,1000 465,997 "/>
  <polygon id="brazil" class="fil1" points="573,922 585,898 586,877 610,861 623,861 634,843 636,809 632,800 657,776 658,751 623,734 582,721 562,719 567,708 566,691 561,689 555,702 552,706 543,702 514,713 505,700 506,688 497,697 487,692 486,693 486,697 495,702 482,716 474,716 465,707 456,707 455,718 460,724 454,744 446,745 435,752 432,767 442,778 444,776 451,774 457,784 475,777 482,777 486,794 511,802 516,815 526,816 531,829 528,840 533,846 532,855 544,854 555,868 554,878 561,883 545,907 573,922 "/>
  <polygon id="belize" class="fil2" points="346,600 346,607 348,607 354,596 350,596 346,600 "/>
  <polygon id="russia" class="fil1" points="1612,167 1615,180 1623,182 1630,171 1626,163 1627,156 1638,156 1636,161 1637,180 1621,219 1623,227 1622,241 1651,283 1657,285 1657,251 1663,245 1657,232 1662,226 1651,211 1644,211 1642,186 1658,182 1659,175 1668,173 1672,177 1678,154 1688,137 1696,133 1702,134 1702,126 1692,124 1677,111 1684,103 1678,89 1683,83 1689,92 1705,97 1722,99 1724,92 1715,83 1725,69 1702,61 1697,73 1690,64 1649,49 1610,56 1604,59 1604,63 1612,67 1611,77 1596,70 1563,83 1557,71 1535,71 1524,82 1487,74 1454,81 1449,91 1455,93 1454,101 1421,104 1424,115 1393,110 1401,96 1370,94 1373,108 1363,113 1355,105 1321,111 1308,123 1307,130 1299,131 1298,123 1325,100 1325,84 1307,79 1285,87 1276,77 1272,77 1267,88 1271,92 1241,108 1216,128 1200,149 1200,158 1217,165 1208,171 1191,165 1184,171 1173,159 1171,163 1183,201 1186,202 1194,198 1198,201 1198,208 1190,205 1186,208 1189,215 1186,233 1170,234 1169,229 1178,223 1180,207 1170,194 1166,170 1150,167 1148,176 1151,180 1145,186 1147,201 1157,206 1159,217 1149,211 1124,206 1121,214 1101,222 1097,217 1071,231 1071,241 1060,243 1063,235 1063,228 1053,224 1046,227 1052,238 1056,245 1056,251 1048,250 1047,248 1039,256 1043,264 1025,263 1031,270 1030,274 1020,274 1013,269 1012,256 1001,252 1001,246 1024,251 1036,252 1041,244 1037,236 1004,223 992,226 988,229 989,237 994,238 993,250 1008,285 997,302 997,306 1002,310 997,313 994,313 994,329 999,335 999,341 1005,342 1014,345 1023,358 1023,362 1020,367 1027,367 1034,369 1044,382 1066,384 1065,399 1058,406 1059,409 1051,417 1049,425 1054,432 1069,437 1075,433 1115,448 1117,444 1108,436 1108,427 1103,425 1104,417 1113,407 1098,396 1099,380 1115,370 1133,371 1136,376 1156,377 1170,370 1162,362 1164,347 1200,329 1228,342 1237,334 1265,360 1286,358 1293,365 1313,367 1326,349 1342,357 1351,358 1360,350 1352,345 1359,335 1378,341 1382,349 1390,350 1396,346 1410,346 1411,349 1427,350 1438,339 1460,341 1467,339 1469,326 1462,311 1469,305 1490,305 1511,329 1537,344 1544,344 1545,338 1555,332 1556,366 1547,367 1547,375 1552,381 1551,388 1555,390 1557,384 1560,385 1562,387 1571,385 1581,358 1582,324 1570,297 1555,279 1547,280 1547,286 1530,279 1537,264 1542,225 1566,218 1578,211 1590,211 1587,215 1590,220 1601,209 1607,209 1606,203 1596,200 1603,176 1612,167 "/>
  <polygon id="china" class="fil1" points="1307,368 1300,386 1290,385 1280,408 1289,419 1271,444 1261,443 1255,451 1257,455 1264,456 1268,464 1275,466 1297,494 1297,509 1308,516 1320,514 1335,523 1353,528 1362,527 1372,526 1393,512 1399,513 1402,519 1408,521 1415,533 1410,544 1413,552 1422,555 1424,564 1434,566 1436,561 1451,553 1460,554 1471,566 1478,562 1483,563 1485,569 1488,569 1494,562 1514,554 1533,532 1539,510 1539,496 1531,494 1536,489 1535,481 1515,461 1515,451 1521,444 1526,441 1527,435 1512,435 1510,443 1503,442 1495,433 1500,419 1507,411 1514,412 1513,424 1516,427 1525,418 1528,418 1527,411 1536,401 1542,402 1546,390 1550,388 1550,381 1546,376 1546,365 1554,364 1553,335 1548,339 1545,346 1536,346 1509,331 1490,307 1470,307 1465,312 1471,326 1469,340 1461,343 1457,343 1456,357 1461,358 1469,354 1480,359 1480,364 1472,365 1466,378 1460,379 1440,406 1419,415 1404,416 1395,409 1381,417 1366,412 1362,402 1337,400 1323,378 1317,378 1313,368 "/>
  <polygon id="kazakhstan" class="fil1" points="1114,406 1122,403 1132,402 1133,417 1127,417 1123,424 1128,433 1137,437 1137,443 1140,442 1143,438 1148,439 1150,444 1156,444 1156,438 1152,428 1151,419 1161,414 1175,417 1184,426 1204,424 1215,439 1228,440 1231,434 1236,433 1237,427 1243,426 1247,430 1251,422 1281,426 1287,419 1278,408 1290,383 1299,384 1306,368 1293,367 1285,359 1264,362 1238,336 1228,344 1200,331 1165,348 1164,361 1172,370 1156,379 1136,379 1132,372 1115,371 1100,381 1100,395 1114,406 "/>
  <polygon id="tajikistan" class="fil1" points="1224,454 1233,444 1236,444 1237,446 1233,449 1233,451 1236,453 1248,454 1252,452 1254,452 1255,456 1263,457 1266,465 1265,467 1264,467 1262,464 1259,464 1254,465 1253,470 1248,470 1248,463 1244,459 1238,464 1238,468 1233,469 1229,469 1230,458 1224,454 "/>
  <polygon id="pakistan" class="fil1" points="1210,532 1215,540 1215,545 1208,547 1207,554 1215,554 1218,552 1234,552 1248,564 1249,558 1260,558 1260,551 1249,540 1252,535 1263,534 1277,503 1269,497 1266,486 1286,484 1274,467 1268,466 1266,469 1264,469 1252,476 1256,483 1251,488 1246,507 1233,516 1231,525 1210,532 "/>
  <polygon id="india" class="fil1" points="1309,663 1318,658 1324,638 1323,613 1356,578 1356,570 1362,567 1362,558 1355,544 1359,537 1368,545 1379,545 1379,550 1376,554 1376,556 1383,556 1384,563 1386,563 1390,555 1393,533 1400,528 1400,520 1397,514 1393,514 1374,527 1375,535 1361,535 1357,529 1354,529 1355,537 1326,535 1308,527 1307,518 1295,510 1295,495 1287,486 1268,487 1270,496 1280,503 1264,536 1253,536 1251,540 1262,550 1261,560 1251,560 1249,565 1258,564 1259,568 1252,571 1256,579 1264,582 1269,578 1271,572 1274,570 1277,574 1276,582 1274,586 1275,592 1309,663 "/>
  <polygon id="thailand" class="fil1" points="1430,575 1437,584 1437,594 1439,595 1450,590 1452,591 1465,605 1464,615 1460,615 1457,612 1454,613 1449,621 1450,625 1454,627 1454,632 1451,634 1441,627 1441,621 1437,621 1436,624 1435,650 1441,661 1452,671 1451,674 1446,674 1440,666 1435,666 1428,661 1426,655 1429,650 1430,645 1433,640 1433,626 1425,615 1425,613 1427,611 1427,602 1416,588 1417,581 1430,575 "/>
  <polygon id="malaysia" class="fil1" points="1436,668 1440,677 1441,689 1447,698 1460,706 1465,706 1464,698 1460,687 1453,674 1453,676 1445,676 1439,668 1436,668 "/>
  <polygon id="cambodia" class="fil1" points="1452,635 1460,644 1476,632 1477,614 1469,619 1465,617 1459,616 1456,614 1455,614 1451,621 1451,624 1455,627 1455,633 1452,635 "/>
  <polygon id="georgia" class="fil2" points="1070,438 1077,447 1085,451 1091,451 1099,448 1102,445 1075,435 1070,438 "/>
  <polygon id="armenia" class="fil1" points="1100,450 1110,463 1107,466 1100,465 1091,457 1091,452 1100,450 "/>
  <polygon id="azerbaijan" class="fil1" points="1103,446 1101,449 1111,462 1114,461 1120,467 1122,456 1128,457 1128,454 1118,446 1116,451 1103,446 "/>
  <polygon id="turkey" class="fil1" points="1077,449 1072,453 1055,453 1045,447 1035,447 1024,455 1013,455 1012,461 1000,461 995,466 995,468 998,471 998,473 997,476 998,479 1002,477 1006,481 1005,484 1004,486 1006,489 1017,491 1024,488 1024,483 1028,484 1036,489 1046,487 1050,483 1053,484 1053,489 1056,489 1059,483 1087,480 1099,478 1096,474 1096,469 1098,466 1089,459 1090,453 1085,453 1077,449 "/>
  <polygon id="lebanon" class="fil2" points="1051,497 1051,501 1050,507 1055,507 1056,499 1051,497 "/>
  <polygon id="finland" class="fil1" points="970,258 974,260 977,265 974,269 961,283 959,291 962,302 972,309 985,303 996,301 1007,285 999,267 992,250 993,239 988,238 987,230 981,220 974,225 972,236 965,231 955,229 952,231 956,235 963,235 969,244 970,258 "/>
  <polygon id="lithuania" class="fil1" points="978,336 974,336 968,342 962,342 963,349 960,355 971,355 974,355 977,358 985,358 992,349 991,344 978,336 "/>
  <polygon id="belarus" class="fil2" points="978,360 981,365 980,369 980,372 981,376 987,373 995,373 1001,375 1015,375 1019,365 1022,362 1022,359 1013,347 1005,343 999,343 993,345 993,350 985,360 978,360 "/>
  <polygon id="spain" class="fil1" points="849,440 823,440 818,438 815,438 812,444 813,451 823,452 824,456 820,481 820,485 827,489 836,489 852,485 860,475 860,465 874,452 875,446 862,446 849,440 "/>
  <polygon id="portugal" class="fil1" points="813,453 812,471 808,474 809,476 811,480 810,485 812,486 819,486 818,480 823,457 822,453 813,453 "/>
  <polygon id="majorca" class="fil1" points="876,465 872,466 873,469 878,469 880,467 876,465 "/>
  <polygon id="sardinia" class="fil1" points="910,457 904,460 905,471 909,471 912,468 912,458 910,457 "/>
  <polygon id="corsica" class="fil1" points="910,444 906,448 906,452 909,454 910,454 911,448 910,444 "/>
  <polygon id="france" class="fil1" points="874,386 870,387 860,397 858,397 854,394 852,395 850,401 837,401 837,404 846,410 857,418 856,429 851,438 863,444 875,445 879,440 887,440 889,443 897,442 901,437 896,431 896,427 897,423 894,419 890,420 889,417 899,406 899,400 893,396 889,396 874,386 "/>
  <polygon id="netherlands" class="fil1" points="894,364 885,369 887,371 887,375 885,375 883,371 878,380 886,381 889,384 890,385 891,377 896,375 894,364 "/>
  <polygon id="belgium" class="fil1" points="877,381 875,385 889,394 894,395 894,390 890,386 888,386 885,383 877,381 "/>
  <polygon id="germany" class="fil1" points="896,363 904,362 904,357 910,356 913,359 917,360 922,357 927,359 932,363 932,377 937,383 931,383 921,389 922,391 931,399 930,403 922,407 915,408 913,411 909,411 907,407 901,406 901,399 895,395 896,391 892,385 893,379 898,376 896,363 "/>
  <polygon id="czech" class="fil1" points="932,398 938,398 941,398 946,402 955,394 946,388 938,384 932,385 923,390 932,398 "/>
  <polygon id="slovakia" class="fil1" points="947,403 949,404 949,406 965,406 976,401 976,396 974,397 971,395 969,395 963,397 956,396 947,403 "/>
  <polygon id="austria" class="fil1" points="916,409 915,412 916,414 920,413 925,413 929,417 938,415 945,411 947,408 947,405 941,400 932,400 932,405 923,409 916,409 "/>
  <polygon id="hungary" class="fil1" points="949,408 947,412 947,418 951,420 962,420 979,406 979,403 977,402 965,408 949,408 "/>
  <polygon id="slovenia" class="fil2" points="945,413 940,416 930,418 932,424 939,424 945,419 945,413 "/>
  <polygon id="croatia" class="fil1" points="947,420 939,426 932,426 931,431 935,432 936,429 939,432 941,439 956,446 957,444 942,429 944,426 958,426 959,421 950,421 947,420 "/>
  <polygon id="italy" class="fil1" points="899,423 897,427 898,430 903,436 910,436 927,456 938,459 944,465 946,478 949,476 952,469 952,464 957,463 957,460 943,453 930,440 924,432 923,425 930,423 928,418 924,415 920,414 915,416 911,422 908,424 903,422 899,423 "/>
  <polygon id="sicily" class="fil1" points="940,477 937,476 927,477 927,480 937,485 938,486 940,486 940,477 "/>
  <polygon id="ukraine" class="fil1" points="988,374 982,378 983,384 978,396 978,401 981,402 997,403 1002,399 1007,401 1014,411 1009,420 1015,422 1023,412 1028,413 1032,416 1028,421 1034,429 1039,429 1042,424 1048,423 1048,418 1037,417 1037,412 1048,412 1059,403 1064,399 1065,385 1043,383 1034,370 1027,368 1020,368 1016,377 1000,377 995,375 988,374 "/>
  <polygon id="romania" class="fil1" points="981,404 980,407 968,417 978,432 985,436 996,436 1000,433 1005,432 1009,435 1016,427 1014,423 1008,421 1003,421 1003,415 997,405 981,404 "/>
  <polygon id="bulgaria" class="fil1" points="979,435 980,445 983,452 996,452 1002,448 1008,446 1006,439 1008,436 1005,434 1001,435 998,438 984,438 979,435 "/>
  <polygon id="albania" class="fil2" points="964,450 964,459 967,464 969,464 972,458 970,455 969,449 967,446 964,450 "/>
  <polygon id="macedonia" class="fil2" points="978,446 971,448 972,454 973,456 982,453 978,446 "/>
  <polygon id="greece" class="fil1" points="970,466 969,469 979,474 984,475 981,478 976,478 975,481 977,485 983,488 985,488 986,481 990,476 979,464 980,460 983,459 987,463 989,461 990,457 1001,457 1002,451 997,454 983,454 974,458 970,466 "/>
  <polygon id="crete" class="fil1" points="990,493 994,493 995,495 1000,495 1003,494 1004,495 1002,498 993,498 991,496 989,495 990,493 "/>
  <polygon id="papua_x0020_new_x0020_guinea" class="fil2" points="1684,736 1683,786 1690,786 1700,774 1708,775 1713,779 1715,794 1731,802 1735,801 1735,796 1722,785 1716,770 1721,767 1717,759 1709,759 1707,750 1687,736 1684,736 "/>
  <polygon id="mauretania" class="fil2" points="760,588 764,594 763,619 770,614 774,613 781,616 788,626 795,621 830,621 821,564 830,564 813,551 813,559 792,559 792,575 786,575 785,587 760,588 "/>
  <polygon id="gambia" class="fil1" points="764,633 763,635 778,635 778,632 778,630 774,632 764,633 "/>
  <polygon id="casamance" class="fil2" points="764,636 766,643 767,639 785,641 777,637 764,636 "/>
  <polygon id="bissau" class="fil2" points="767,645 770,651 778,644 778,642 769,641 767,645 "/>
  <polygon id="guinee" class="fil2" points="771,652 777,662 785,655 794,655 801,664 807,668 809,663 811,662 811,653 807,641 795,643 780,642 780,645 771,652 "/>
  <polygon id="sierra_x0020_leone" class="fil2" points="778,663 790,674 798,664 793,656 786,657 778,663 "/>
  <polygon id="ivoire" class="fil2" points="816,691 824,685 835,683 847,685 841,677 839,671 841,656 831,656 826,652 817,652 812,653 813,664 810,664 808,670 815,678 816,691 "/>
  <polygon id="mali" class="fil2" points="790,627 796,623 831,623 823,566 832,566 878,600 884,601 881,620 853,623 831,639 827,650 812,651 808,640 796,641 797,637 790,627 "/>
  <polygon id="niger" class="fil2" points="875,640 880,640 885,633 893,631 902,637 920,637 934,631 939,627 939,621 949,611 952,589 945,576 929,572 891,602 885,601 883,622 864,624 875,640 "/>
  <polygon id="libya" class="fil2" points="915,529 918,528 919,521 920,521 927,510 943,515 948,522 964,529 972,525 971,522 968,518 968,516 974,511 986,511 990,517 999,518 1001,594 994,594 951,572 947,575 930,570 925,564 918,563 915,557 915,529 "/>
  <polygon id="chad" class="fil2" points="941,628 941,622 951,612 954,589 947,576 952,574 996,597 996,620 988,626 988,638 993,648 984,648 969,662 969,667 958,667 957,669 951,668 947,660 944,658 944,656 948,653 948,638 943,637 936,632 941,628 941,628 "/>
  <polygon id="sudan" class="fil2" points="997,620 998,596 1003,596 1002,583 1055,583 1063,575 1080,602 1071,612 1071,628 1056,659 1052,661 1053,669 1059,669 1067,681 1061,682 1059,685 1059,690 1039,689 1037,686 1023,686 998,659 1000,658 1001,652 995,648 989,637 990,627 997,620 "/>
  <polygon id="eritrea" class="fil2" points="1073,625 1072,613 1080,603 1083,605 1087,618 1106,633 1103,637 1088,625 1073,625 "/>
  <polygon id="djibouti" class="fil2" points="1103,639 1102,646 1110,646 1110,636 1107,634 1103,639 "/>
  <polygon id="somaliland" class="fil2" points="1112,646 1120,652 1123,652 1144,645 1146,652 1145,659 1140,662 1129,662 1113,652 1112,646 "/>
  <polygon id="soqotra" class="fil2" points="1161,635 1166,640 1172,637 1174,636 1171,633 1166,635 1161,635 "/>
  <polygon id="somalia" class="fil2" points="1146,644 1155,641 1158,643 1157,651 1149,674 1104,723 1099,719 1099,699 1105,691 1120,687 1141,664 1146,659 1148,652 1146,644 "/>
  <polygon id="centrafrique" class="fil2" points="947,686 956,696 960,691 966,691 968,687 974,683 986,691 993,684 1021,685 995,659 998,657 999,652 993,649 985,649 971,663 970,669 959,668 959,671 952,670 946,682 947,686 "/>
  <polygon id="sao_x0020_tome" class="fil2" points="895,713 898,711 900,713 898,716 896,715 895,713 "/>
  <polygon id="principe" class="fil2" points="900,705 904,704 905,707 903,709 901,708 900,705 "/>
  <polygon id="bioko" class="fil2" points="908,693 907,697 910,698 913,696 912,692 908,693 "/>
  <polygon id="equatorial_x0020_guinea" class="fil2" points="917,703 916,706 926,707 926,704 917,703 "/>
  <polygon id="congo" class="fil2" points="937,703 937,706 947,706 947,732 938,732 933,728 929,730 929,731 931,732 932,737 926,742 927,745 933,740 936,740 937,743 941,744 954,734 954,726 956,720 964,714 966,693 961,693 954,702 937,703 "/>
  <polygon id="cabinda" class="fil2" points="928,746 932,750 936,746 935,741 934,741 928,746 "/>
  <polygon id="drc" class="fil2" points="934,751 955,751 959,757 959,761 961,763 971,763 975,757 979,757 981,758 986,758 988,779 998,779 998,781 1026,793 1027,796 1033,796 1032,787 1022,782 1023,776 1027,765 1037,765 1029,736 1029,723 1043,701 1043,698 1041,697 1041,691 1038,691 1036,688 994,686 986,693 973,685 969,688 966,715 958,721 955,727 956,735 941,746 938,745 938,747 934,751 "/>
  <polygon id="burundi" class="fil2" points="1031,731 1039,731 1037,739 1035,741 1032,741 1030,736 1031,731 "/>
  <polygon id="tanzania" class="fil2" points="1060,783 1096,779 1088,763 1088,748 1090,741 1056,719 1045,721 1041,724 1041,730 1039,739 1036,742 1033,742 1040,766 1051,772 1059,772 1060,783 "/>
  <polygon id="zambia" class="fil2" points="986,811 992,820 1003,820 1006,822 1017,823 1026,810 1051,798 1054,788 1051,774 1037,766 1028,767 1024,777 1024,781 1035,786 1035,797 1026,798 1024,794 999,783 998,792 986,792 986,811 "/>
  <polygon id="angola" class="fil2" points="932,753 939,779 939,788 929,799 927,817 967,817 980,822 990,820 984,812 984,790 996,790 996,781 987,781 985,760 980,760 978,758 976,758 972,765 960,765 957,762 958,758 954,753 932,753 "/>
  <polygon id="malawi" class="fil2" points="1053,800 1060,806 1059,815 1061,819 1069,809 1068,798 1064,794 1060,774 1053,774 1056,788 1053,800 "/>
  <polygon id="zimbabwe" class="fil2" points="1007,826 1025,847 1039,851 1049,836 1048,816 1033,808 1027,811 1018,824 1006,824 1007,826 "/>
  <polygon id="swaziland" class="fil2" points="1040,871 1035,872 1033,878 1037,882 1041,882 1046,876 1040,871 "/>
  <polygon id="lesotho" class="fil2" points="1012,895 1019,890 1022,890 1025,894 1025,899 1019,901 1019,903 1012,902 1011,898 1012,895 "/>
  <polygon id="greenland" class="fil2" points="587,120 584,125 589,130 587,135 594,144 603,142 615,141 628,155 637,179 630,194 640,193 646,196 646,203 634,204 641,211 649,212 631,237 628,252 632,264 629,272 634,287 644,298 647,298 653,296 654,305 657,310 665,310 670,289 687,268 712,258 728,239 735,242 751,242 763,230 778,224 780,214 770,206 762,203 757,191 768,185 785,194 790,188 781,183 801,157 797,146 788,145 792,135 803,130 826,110 819,102 793,105 780,118 788,101 779,98 774,107 766,101 746,103 752,95 785,93 776,82 740,75 726,78 726,85 711,80 712,75 701,77 699,83 710,87 698,95 690,86 678,82 677,91 665,91 660,82 642,79 632,84 631,91 618,89 610,92 611,100 611,104 596,107 590,102 585,110 592,117 606,115 607,120 596,125 587,120 "/>
  <polygon id="disko" class="fil2" points="632,208 635,213 633,219 630,219 625,214 627,210 632,208 "/>
  <polygon id="milne" class="fil2" points="772,194 781,197 781,204 771,199 769,197 772,194 "/>
  <polygon id="tasmania" class="fil2" points="1628,1041 1624,1056 1625,1066 1636,1065 1648,1046 1628,1041 "/>
  <polygon id="new_x0020_zealand_x0020_north_x0020_island" class="fil2" points="1808,1011 1810,1036 1807,1047 1796,1055 1797,1064 1797,1075 1800,1078 1830,1053 1830,1047 1823,1047 1812,1012 1808,1011 "/>
  <polygon id="new_x0020_zealand_x0020_south_x0020_island" class="fil2" points="1786,1064 1792,1076 1776,1091 1774,1099 1763,1101 1745,1118 1728,1109 1727,1104 1757,1090 1786,1064 "/>
  <polygon id="new_x0020_caledonia" class="fil2" points="1795,885 1794,888 1804,901 1809,904 1809,899 1795,885 "/>
  <polygon id="brunei" class="fil1" points="1533,676 1527,683 1532,684 1535,681 1533,676 "/>
  <polygon id="new_x0020_ireland" class="fil2" points="1741,737 1739,740 1749,748 1750,754 1753,753 1753,748 1750,745 1741,737 "/>
  <polygon id="new_x0020_britain" class="fil2" points="1746,749 1744,750 1743,755 1739,758 1728,760 1728,764 1740,763 1747,759 1747,750 1746,749 "/>
  <polygon id="bougainville" class="fil2" points="1759,759 1762,766 1766,770 1768,769 1767,764 1762,758 1759,759 "/>
  <polygon id="choiseul" class="fil2" points="1772,769 1772,774 1775,777 1778,775 1775,770 1772,769 "/>
  <polygon id="new_x0020_georgia" class="fil2" points="1775,781 1773,784 1775,788 1778,789 1778,786 1775,781 "/>
  <polygon id="santa_x0020_isabel" class="fil2" points="1781,778 1783,783 1787,788 1790,785 1787,780 1781,778 "/>
  <polygon id="malaita" class="fil2" points="1792,786 1793,792 1796,796 1798,791 1792,786 "/>
  <polygon id="santa_x0020_ana" class="fil2" points="1795,800 1794,802 1797,807 1800,807 1798,801 1795,800 "/>
  <polygon id="rennell" class="fil2" points="1787,809 1784,811 1787,815 1790,814 1787,809 "/>
  <polygon id="espiritu_x0020_santo" class="fil2" points="1824,837 1822,840 1823,844 1824,845 1826,842 1824,837 "/>
  <polygon id="malakula" class="fil2" points="1825,847 1826,850 1828,851 1830,850 1828,847 1825,847 "/>
  <polygon id="efate" class="fil2" points="1829,872 1828,874 1830,876 1833,875 1829,872 "/>
  <polygon id="fiji" class="fil2" points="1881,868 1879,871 1879,875 1882,878 1881,868 "/>
  <polygon id="palawan" class="fil2" points="1553,631 1551,634 1550,638 1540,651 1541,654 1545,653 1558,639 1553,631 "/>
  <polygon id="negros" class="fil2" points="1569,626 1569,636 1572,640 1574,648 1577,648 1579,644 1576,642 1576,629 1569,626 "/>
  <polygon id="cebu" class="fil2" points="1579,630 1579,639 1581,643 1585,638 1584,630 1579,630 "/>
  <polygon id="samar" class="fil2" points="1582,622 1586,627 1587,632 1591,632 1590,624 1586,621 1582,622 "/>
  <polygon id="path7462" class="fil2" points="1589,641 1590,647 1583,652 1577,653 1571,660 1571,662 1577,661 1581,658 1584,667 1590,671 1593,670 1595,667 1590,663 1593,660 1596,663 1598,660 1596,655 1596,645 1589,641 "/>
  <polygon id="luzon" class="fil2" points="1557,580 1552,584 1551,596 1559,612 1562,614 1566,612 1572,613 1573,618 1577,619 1580,616 1577,612 1574,609 1566,608 1563,602 1567,595 1567,589 1564,582 1557,580 "/>
  <polygon id="mindoro" class="fil2" points="1560,616 1561,621 1564,623 1566,621 1563,616 1560,616 "/>
  <polygon id="hainan" class="fil2" points="1492,574 1487,576 1483,580 1486,586 1491,586 1496,582 1497,576 1492,574 "/>
  <polygon id="kyushu" class="fil1" points="1581,464 1578,467 1579,472 1582,472 1584,482 1587,485 1591,481 1593,474 1588,467 1581,464 "/>
  <polygon id="shikoku" class="fil1" points="1600,457 1594,462 1594,468 1595,470 1603,464 1602,457 1600,457 "/>
  <polygon id="honshu" class="fil1" points="1592,444 1582,456 1583,458 1588,459 1598,452 1604,451 1610,458 1615,456 1616,449 1625,449 1633,439 1629,423 1627,414 1631,410 1621,395 1619,396 1613,402 1613,406 1616,409 1617,422 1610,430 1607,428 1604,434 1604,440 1606,443 1604,446 1600,442 1597,442 1594,443 1592,444 "/>
  <polygon id="hokkaido" class="fil1" points="1609,354 1606,357 1607,363 1610,366 1610,375 1606,376 1603,382 1611,394 1617,392 1618,389 1612,384 1616,379 1619,380 1622,383 1622,376 1631,370 1635,369 1631,362 1630,360 1627,362 1624,365 1619,364 1613,360 1609,354 "/>
  <polygon id="iturup" class="fil2" points="1638,348 1633,356 1633,360 1636,358 1643,350 1638,348 "/>
  <polygon id="urup" class="fil2" points="1646,337 1644,342 1644,346 1647,343 1650,337 1650,335 1646,337 "/>
  <polygon id="paramushir" class="fil2" points="1657,289 1655,293 1655,298 1657,297 1661,290 1657,289 "/>
  <polygon id="onekotan" class="fil2" points="1653,302 1653,310 1655,311 1657,308 1657,301 1653,302 "/>
  <polygon id="sakhalin" class="fil2" points="1572,270 1572,283 1588,307 1593,329 1604,348 1607,349 1611,346 1612,342 1598,326 1598,318 1602,317 1602,312 1574,272 1572,270 "/>
  <polygon id="bering_x0020_island" class="fil2" points="1683,230 1679,231 1682,234 1687,238 1688,236 1683,230 "/>
  <polygon id="medny" class="fil2" points="1691,233 1691,236 1698,238 1698,236 1691,233 "/>
  <polygon id="st._x0020_lawrence_x0020_island" class="fil2" points="1742,96 1738,99 1736,103 1739,106 1744,104 1749,106 1752,107 1752,97 1742,96 "/>
  <polygon id="kerguelen" class="fil2" points="1209,1048 1209,1057 1221,1060 1224,1052 1219,1053 1214,1055 1212,1048 1209,1048 "/>
  <polygon id="mauritius" class="fil2" points="1189,840 1186,844 1186,849 1193,843 1189,840 "/>
  <polygon id="reunion" class="fil2" points="1177,847 1173,847 1172,852 1175,852 1180,850 1177,847 "/>
  <polygon id="madagascar" class="fil2" points="1146,786 1142,797 1134,810 1121,811 1115,818 1116,838 1108,847 1109,864 1116,872 1124,871 1132,865 1131,855 1149,822 1146,818 1149,810 1154,812 1155,809 1151,792 1149,786 1146,786 "/>
  <polygon id="grande_x0020_comore" class="fil2" points="1116,783 1117,786 1121,787 1123,783 1116,783 "/>
  <polygon id="mayotte" class="fil2" points="1122,789 1124,793 1126,793 1127,788 1122,789 "/>
  <polygon id="aldabra" class="fil2" points="1167,756 1166,759 1169,762 1172,759 1167,756 "/>
  <polygon id="praslin" class="fil2" points="1185,737 1181,740 1184,744 1187,744 1185,737 "/>
  <polygon id="mahe" class="fil2" points="1186,748 1184,751 1186,754 1189,755 1189,749 1186,748 "/>
  <polygon id="male" class="fil2" points="1278,679 1279,684 1283,685 1283,681 1278,679 "/>
  <polygon id="maldive" class="fil2" points="1283,690 1283,697 1285,698 1287,694 1283,690 "/>
  <polygon id="gan" class="fil2" points="1284,703 1281,705 1284,708 1287,705 1284,703 "/>
  <polygon id="flores_0" class="fil2" points="693,465 690,468 695,470 696,466 693,465 "/>
  <polygon id="terceira" class="fil2" points="708,463 705,465 708,468 712,466 708,463 "/>
  <polygon id="pico" class="fil2" points="710,471 709,475 711,478 714,476 710,471 "/>
  <polygon id="sao_x0020_miguel" class="fil2" points="724,480 723,483 724,485 729,482 724,480 "/>
  <polygon id="madeira" class="fil2" points="766,505 764,508 766,510 770,509 766,505 "/>
  <polygon id="lanzarote" class="fil2" points="782,540 778,543 780,544 782,540 "/>
  <polygon id="gran_x0020_canaria" class="fil2" points="769,541 765,542 767,545 770,545 769,541 "/>
  <polygon id="tenerife" class="fil2" points="759,538 756,540 760,544 762,539 759,538 "/>
  <polygon id="santo_x0020_antao" class="fil2" points="724,616 720,619 723,621 726,619 724,616 "/>
  <polygon id="boa_x0020_vista" class="fil2" points="733,621 731,623 733,627 737,625 733,621 "/>
  <polygon id="santiago" class="fil2" points="728,627 725,629 728,634 731,633 728,627 "/>
  <polygon id="guadeloupe" class="fil2" points="495,602 492,603 493,606 497,603 496,603 495,602 "/>
  <polygon id="dominica" class="fil2" points="500,605 498,609 500,612 503,609 500,605 "/>
  <polygon id="martinique" class="fil2" points="506,615 504,617 506,621 509,620 506,615 "/>
  <polygon id="st._x0020_lucia" class="fil2" points="506,624 505,627 507,629 510,628 506,624 "/>
  <polygon id="st._x0020_vincent" class="fil2" points="506,632 504,633 506,637 509,635 506,632 "/>
  <polygon id="grenada" class="fil2" points="503,639 501,641 502,643 505,643 505,640 503,639 "/>
  <polygon id="trinidad" class="fil2" points="507,646 504,648 502,648 502,651 506,655 508,652 509,649 509,646 507,646 "/>
  <polygon id="puerto_x0020_rico" class="fil2" points="483,597 478,595 474,598 476,600 483,601 483,597 "/>
  <polygon id="haiti-dominican_x0020_border" class="fil1" points="442,585 438,589 442,590 443,595 434,596 435,601 438,601 439,599 449,599 451,603 453,600 460,598 466,599 467,596 456,588 449,586 442,585 "/>
  <polygon id="haiti" class="fil2" points="442,585 449,586 448,595 447,599 439,599 438,601 435,601 434,596 443,595 442,590 438,589 442,585 "/>
  <polygon id="falklands_x0020_west" class="fil2" points="560,1065 554,1065 549,1069 553,1073 560,1065 "/>
  <polygon id="falklands_x0020_east" class="fil2" points="565,1063 563,1069 558,1073 558,1075 567,1071 571,1067 565,1063 "/>
  <polygon id="iceland" class="fil1" points="763,259 759,257 753,260 748,265 749,267 755,268 754,272 752,274 753,276 759,276 759,283 767,285 773,287 778,288 788,283 796,273 796,266 792,262 788,258 786,260 783,263 780,263 777,259 773,260 768,264 764,268 762,267 762,262 764,261 763,259 "/>
  <polygon id="spitsbergen" class="fil2" points="932,128 928,125 921,129 907,129 905,137 912,144 916,143 921,135 925,138 922,144 920,152 924,158 931,145 941,134 937,131 932,128 "/>
  <polygon id="nordaustlandet" class="fil2" points="936,114 930,119 933,125 940,125 943,129 951,133 960,127 966,122 964,118 958,114 953,118 950,114 947,114 944,121 940,117 939,113 936,114 "/>
  <polygon id="edgeoya" class="fil2" points="950,139 945,143 941,146 943,150 946,151 953,148 956,144 953,140 950,139 "/>
  <polygon id="prince_x0020_george" class="fil2" points="1054,97 1058,98 1056,103 1056,109 1050,112 1045,112 1041,108 1042,104 1044,101 1049,101 1054,97 "/>
  <polygon id="salisbury" class="fil2" points="1068,93 1068,97 1072,100 1076,100 1081,96 1081,93 1077,93 1074,94 1071,91 1068,93 "/>
  <polygon id="wilczek" class="fil2" points="1088,93 1091,99 1096,99 1099,98 1097,93 1093,92 1088,93 "/>
  <polygon id="bell" class="fil2" points="1108,86 1105,86 1101,89 1103,92 1104,97 1108,94 1110,90 1108,86 "/>
  <polygon id="novaya_x0020_zemlya_x0020_north" class="fil2" points="1130,124 1129,129 1121,136 1103,140 1089,164 1087,171 1101,174 1103,166 1107,153 1118,147 1128,140 1134,137 1138,137 1138,127 1130,124 "/>
  <polygon id="novaya_x0020_zemlya_x0020_south" class="fil2" points="1084,177 1094,178 1097,189 1105,197 1102,203 1097,203 1093,198 1083,197 1078,192 1078,188 1085,186 1084,177 "/>
  <polygon id="komsomolets" class="fil2" points="1234,54 1230,52 1224,52 1223,55 1218,58 1213,59 1213,64 1223,64 1234,54 "/>
  <polygon id="october" class="fil2" points="1245,56 1243,61 1238,61 1230,66 1228,73 1233,73 1236,69 1242,74 1249,71 1253,67 1252,61 1249,57 1245,56 "/>
  <polygon id="bolshevik" class="fil2" points="1256,59 1258,69 1262,79 1266,71 1274,69 1274,64 1269,60 1256,59 "/>
  <polygon id="kotelny" class="fil2" points="1450,43 1456,48 1460,46 1461,40 1453,34 1448,38 1435,39 1435,45 1421,45 1421,55 1437,67 1441,63 1440,55 1451,53 1448,49 1445,45 1450,43 "/>
  <polygon id="novaya_x0020_sibir" class="fil2" points="1465,38 1469,45 1483,43 1487,38 1486,34 1482,32 1479,35 1468,37 1465,38 "/>
  <polygon id="lyakhovsky" class="fil2" points="1464,65 1457,63 1453,68 1451,74 1461,73 1468,69 1464,65 "/>
  <polygon id="wrangel" class="fil2" points="1650,25 1644,23 1637,25 1634,31 1638,36 1650,31 1652,29 1650,25 "/>
  <polygon id="cuba" class="fil2" points="380,568 380,570 391,571 396,568 397,570 408,572 417,581 415,584 415,587 423,589 431,586 435,582 430,580 403,564 394,563 380,568 "/>
  <polygon id="bimini" class="fil2" points="419,552 416,551 416,556 419,559 421,556 419,552 "/>
  <polygon id="andros" class="fil2" points="424,559 420,561 424,566 425,564 424,559 "/>
  <polygon id="inagua" class="fil2" points="435,563 432,563 432,565 435,569 437,567 435,563 "/>
  <polygon id="eleuthera" class="fil2" points="434,558 427,556 426,549 429,548 431,553 433,555 434,558 "/>
  <polygon id="grand_x0020_bahama" class="fil2" points="428,546 424,545 424,541 420,540 423,537 427,539 430,541 428,546 "/>
  <polygon id="jamaica" class="fil2" points="417,594 410,596 410,598 414,600 419,600 421,597 417,594 "/>
  <polygon id="alaska" class="fil1" points="116,110 99,114 103,133 121,138 122,142 94,151 79,177 84,205 93,211 101,205 103,209 94,219 60,234 39,239 38,247 88,233 108,227 127,204 148,190 137,208 149,210 169,201 172,215 186,218 200,232 201,242 199,245 202,255 205,255 206,238 210,238 211,279 221,270 214,228 203,228 192,213 249,116 192,71 129,83 126,103 140,111 135,124 116,110 "/>
  <polygon id="galapagos" class="fil2" points="326,715 325,720 323,723 324,726 329,724 331,721 329,717 326,715 "/>
  <polygon id="banks" class="fil2" points="345,91 345,99 329,116 333,130 345,127 351,117 369,110 383,109 372,97 367,102 362,100 360,95 355,90 345,91 "/>
  <polygon id="prince_x0020_patrick" class="fil2" points="366,67 362,73 380,80 387,70 389,76 394,76 403,67 392,64 388,61 383,66 366,67 "/>
  <polygon id="eglinton" class="fil2" points="397,80 383,86 383,90 401,97 397,102 400,108 411,103 421,103 426,110 433,102 431,95 425,97 424,88 427,82 424,82 419,85 417,87 418,94 415,97 409,96 408,88 397,80 "/>
  <polygon id="mackenzie_x0020_king" class="fil2" points="416,65 415,70 423,74 430,70 429,68 416,65 "/>
  <polygon id="king_x0020_christian" class="fil2" points="423,57 416,60 417,63 431,62 431,59 423,57 "/>
  <polygon id="ellef_x0020_ringnes" class="fil2" points="453,65 453,68 450,72 450,76 459,75 468,83 471,83 471,75 462,65 453,65 "/>
  <polygon id="amund_x0020_ringnes" class="fil2" points="477,74 480,79 477,84 480,90 490,85 490,80 484,74 477,74 "/>
  <polygon id="axel_x0020_heiberg" class="fil2" points="490,64 490,71 503,71 506,74 506,77 495,79 502,89 513,91 528,85 506,53 500,57 501,62 493,60 490,64 "/>
  <polygon id="victoria" class="fil2" points="383,116 366,121 356,129 357,139 375,145 371,154 358,145 354,152 363,158 362,168 376,172 392,171 394,166 406,179 415,176 416,167 422,171 423,162 415,157 416,128 410,123 403,133 383,116 "/>
  <polygon id="prince_x0020_of_x0020_wales" class="fil2" points="439,136 433,133 430,138 437,148 437,157 451,149 451,137 456,132 451,128 442,128 439,136 "/>
  <polygon id="prescott" class="fil2" points="469,132 459,140 461,150 467,150 470,145 474,149 478,148 489,139 469,132 "/>
  <polygon id="cornwallis" class="fil2" points="468,117 465,121 475,125 478,121 468,117 "/>
  <polygon id="bathurst" class="fil2" points="462,99 452,101 446,106 457,107 453,115 456,119 459,118 467,106 462,99 "/>
  <polygon id="devon" class="fil2" points="479,96 474,98 474,105 484,111 484,116 481,119 483,128 518,139 528,143 537,134 526,125 515,128 501,127 495,121 494,106 485,101 479,96 "/>
  <polygon id="baffin" class="fil2" points="508,144 498,143 486,148 480,157 481,180 501,181 520,191 533,206 543,205 540,220 531,235 521,239 514,238 510,235 505,242 507,250 515,250 524,245 533,267 553,280 567,262 555,243 562,235 572,251 589,236 586,229 574,233 566,210 574,197 558,180 550,186 541,169 524,171 519,149 505,159 504,171 496,171 497,160 508,144 "/>
  <polygon id="bylot" class="fil2" points="528,152 525,156 528,161 543,163 533,153 528,152 "/>
  <polygon id="ellesmere" class="fil2" points="514,100 514,104 504,107 506,111 518,116 531,117 540,124 549,119 543,112 551,112 556,107 568,105 568,102 561,98 562,92 581,96 610,85 599,81 602,78 624,78 628,74 583,58 573,55 561,63 549,52 542,52 540,61 532,53 522,56 523,61 538,64 538,72 546,77 566,72 566,79 550,86 540,79 531,80 540,92 535,95 528,89 523,92 528,101 536,101 534,109 527,108 519,99 514,100 "/>
  <polygon id="southhampton" class="fil2" points="473,227 464,238 464,250 471,246 481,246 487,252 493,247 473,227 "/>
  <polygon id="newfoundland" class="fil2" points="579,370 558,391 560,396 586,406 590,399 588,388 579,389 574,384 583,375 579,370 "/>
  <polygon id="canada" class="fil1" points="251,117 255,124 257,132 267,134 274,127 280,130 298,131 310,126 312,143 320,143 320,136 327,137 345,158 357,165 350,175 353,177 376,182 377,192 383,194 384,178 394,175 401,186 417,194 424,195 430,189 430,179 439,173 442,182 434,196 435,203 440,196 449,188 450,177 444,169 446,162 458,156 464,160 465,196 474,188 479,191 472,204 481,206 494,185 506,197 501,218 490,225 479,219 459,224 461,230 456,239 440,242 422,256 406,277 404,284 415,288 419,299 434,314 458,324 453,348 452,355 458,359 467,348 468,327 480,327 487,315 488,297 504,264 525,272 535,287 531,302 539,306 559,293 565,330 583,352 584,363 563,369 553,379 533,374 523,374 505,388 515,385 529,383 531,386 528,397 528,407 534,412 541,410 544,405 548,405 541,418 528,418 523,427 515,427 513,420 524,410 511,414 511,397 507,395 496,399 495,408 471,408 450,422 421,432 418,428 432,406 424,399 419,389 409,381 398,380 377,366 232,342 229,332 216,319 216,309 218,300 217,295 212,289 211,281 224,272 216,227 204,227 194,213 251,117 "/>
  <polygon id="usa" class="fil1" points="231,344 229,352 222,347 218,347 216,356 191,413 198,462 206,466 207,479 224,479 241,492 273,495 277,511 282,515 289,508 295,510 300,534 309,540 316,526 338,510 352,517 365,518 365,510 391,511 396,517 397,530 394,537 398,549 405,549 413,537 410,532 407,519 412,505 433,487 449,482 446,467 469,444 491,440 487,428 509,415 509,399 507,398 499,400 498,410 472,411 452,424 421,434 416,428 430,406 423,400 418,391 408,383 397,382 377,368 231,344 "/>
  <polygon id="haida_x0020_gwaii" class="fil2" points="200,282 197,289 198,293 200,295 200,297 197,297 198,305 201,307 203,305 200,298 202,293 206,287 203,283 200,282 "/>
  <polygon id="vancouver" class="fil2" points="212,322 209,323 215,330 216,338 222,344 227,343 227,335 221,332 212,322 "/>
  <polygon id="honduras" class="fil2" points="352,613 371,612 377,619 374,618 367,618 358,627 354,635 352,634 352,625 346,621 352,613 "/>
  <polygon id="guyana" class="fil2" points="512,665 527,679 521,685 521,690 529,698 528,705 515,710 507,699 509,686 505,677 512,665 "/>
  <polygon id="suriname" class="fil2" points="529,680 533,683 540,679 546,680 545,682 542,687 542,700 530,705 531,697 523,689 523,686 529,680 "/>
  <polygon id="guyane" class="fil2" points="548,681 560,688 553,701 551,704 544,700 545,687 548,681 "/>
  <polygon id="mongolia" class="fil1" points="1314,368 1326,352 1341,359 1351,361 1363,350 1354,344 1360,337 1376,343 1381,352 1391,352 1397,348 1407,348 1410,352 1428,352 1439,341 1455,343 1454,358 1461,360 1469,356 1478,360 1478,363 1471,363 1465,377 1459,378 1439,404 1418,413 1405,414 1394,407 1381,415 1367,411 1363,401 1337,399 1324,376 1318,376 1314,368 "/>
  <polygon id="north_x0020_korea" class="fil2" points="1530,418 1534,419 1535,433 1542,433 1550,425 1547,423 1547,414 1554,406 1551,400 1553,397 1554,391 1550,389 1547,391 1543,403 1537,403 1529,411 1530,418 "/>
  <polygon id="south_x0020_korea" class="fil2" points="1551,426 1563,436 1566,446 1565,452 1559,459 1554,459 1548,446 1545,440 1548,438 1547,435 1544,434 1551,426 "/>
  <polygon id="turkmenistan" class="fil2" points="1149,445 1148,451 1140,451 1140,458 1149,464 1146,472 1146,476 1150,477 1155,470 1166,468 1191,477 1191,484 1205,485 1220,469 1218,464 1208,462 1179,443 1178,436 1167,436 1162,445 1158,445 1149,445 "/>
  <polygon id="uzbekistan" class="fil2" points="1222,469 1228,469 1228,458 1222,455 1232,442 1236,442 1241,447 1251,443 1236,438 1236,435 1232,435 1229,442 1214,441 1203,425 1183,427 1174,418 1161,416 1152,420 1157,438 1157,444 1161,444 1166,435 1179,435 1181,442 1208,460 1219,462 1222,469 "/>
  <polygon id="kirgizstan" class="fil1" points="1238,428 1237,433 1238,436 1256,442 1240,449 1238,447 1235,450 1235,451 1237,452 1248,452 1254,450 1261,441 1270,443 1281,428 1252,424 1248,433 1242,428 1238,428 "/>
  <polygon id="afghanistan" class="fil2" points="1191,485 1195,511 1203,513 1203,518 1198,522 1209,531 1230,524 1231,515 1245,506 1250,487 1254,483 1250,476 1263,468 1261,466 1255,466 1255,472 1247,471 1246,464 1244,461 1239,465 1240,469 1233,471 1221,470 1205,487 1191,485 "/>
  <polygon id="nepal" class="fil2" points="1309,517 1310,526 1327,534 1353,536 1352,529 1334,524 1319,515 1309,517 "/>
  <polygon id="bhutan" class="fil2" points="1359,529 1362,533 1373,533 1372,527 1359,529 "/>
  <polygon id="bangladesh" class="fil2" points="1359,539 1357,544 1364,557 1364,568 1365,571 1373,571 1378,566 1381,568 1382,575 1385,573 1385,565 1383,565 1381,558 1376,558 1374,554 1378,549 1378,547 1367,547 1359,539 "/>
  <polygon id="burma" class="fil1" points="1429,643 1423,634 1428,629 1424,621 1420,621 1419,609 1414,598 1412,600 1408,607 1404,607 1402,604 1400,596 1397,590 1383,576 1386,574 1387,564 1392,556 1394,534 1402,529 1402,521 1406,523 1414,533 1408,544 1412,553 1421,556 1422,566 1434,568 1431,573 1416,579 1414,589 1425,603 1426,610 1423,613 1423,615 1431,627 1432,639 1429,643 "/>
  <polygon id="laos" class="fil2" points="1442,559 1437,562 1432,574 1439,583 1438,593 1439,593 1451,588 1466,605 1466,616 1469,618 1478,611 1477,605 1453,583 1453,579 1456,577 1454,571 1444,570 1442,559 "/>
  <polygon id="vietnam" class="fil1" points="1461,645 1464,649 1464,653 1471,654 1479,644 1486,642 1490,631 1488,614 1480,603 1472,597 1462,579 1470,567 1459,555 1451,555 1443,559 1445,568 1455,570 1458,578 1455,580 1455,582 1478,605 1479,612 1478,633 1461,645 "/>
  <polygon id="iran" class="fil2" points="1100,467 1097,469 1097,473 1100,478 1111,490 1110,495 1108,495 1107,500 1113,508 1119,508 1131,524 1137,525 1142,529 1142,536 1163,548 1170,548 1175,544 1180,543 1184,551 1205,554 1206,546 1213,544 1214,541 1208,533 1195,523 1202,517 1201,514 1193,513 1189,484 1189,478 1166,469 1156,471 1151,478 1146,478 1144,479 1133,479 1119,468 1114,463 1111,463 1107,468 1100,467 "/>
  <polygon id="yemen" class="fil2" points="1104,614 1107,623 1107,631 1114,638 1165,617 1165,612 1157,597 1137,604 1125,615 1112,607 1104,614 "/>
  <polygon id="oman" class="fil1" points="1159,596 1174,588 1177,575 1173,573 1175,559 1178,557 1181,562 1199,572 1199,577 1177,610 1167,611 1159,596 "/>
  <polygon id="emirates" class="fil1" points="1150,564 1152,571 1172,573 1173,558 1177,556 1178,550 1172,552 1165,563 1150,564 "/>
  <polygon id="qatar" class="fil1" points="1147,551 1146,560 1149,562 1152,562 1153,551 1150,550 1147,551 "/>
  <polygon id="kuwait" class="fil2" points="1128,527 1123,524 1120,528 1120,534 1128,537 1128,527 "/>
  <polygon id="saudi" class="fil2" points="1129,539 1144,560 1148,563 1150,572 1173,574 1175,575 1173,587 1158,595 1137,602 1125,613 1112,605 1103,612 1092,593 1084,590 1081,586 1081,576 1053,542 1052,536 1060,536 1070,527 1070,523 1067,520 1073,515 1085,516 1106,533 1118,533 1119,536 1129,539 "/>
  <polygon id="syria" class="fil2" points="1052,490 1051,495 1057,497 1057,512 1063,512 1069,507 1071,507 1084,497 1087,481 1060,484 1057,490 1052,490 "/>
  <polygon id="iraq" class="fil2" points="1088,481 1085,497 1072,508 1073,514 1086,514 1107,531 1118,531 1118,527 1123,523 1129,526 1129,525 1118,510 1112,510 1105,500 1107,493 1109,493 1110,490 1100,480 1088,481 "/>
  <polygon id="jordan" class="fil1" points="1057,514 1052,531 1051,534 1059,534 1068,526 1069,523 1065,520 1071,514 1070,509 1069,510 1063,513 1057,514 "/>
  <polygon id="israel" class="fil2" points="1049,508 1046,519 1050,531 1055,513 1055,509 1049,508 "/>
  <polygon id="cyprus" class="fil2" points="1045,491 1047,493 1040,500 1036,500 1033,498 1033,495 1039,494 1045,491 "/>
  <polygon id="norway" class="fil1" points="988,228 992,225 992,221 989,220 989,216 992,216 992,213 982,211 967,212 965,219 962,217 960,214 953,214 952,221 948,223 946,219 931,231 934,235 929,237 916,263 911,266 912,268 916,270 915,275 907,275 905,272 900,278 897,280 896,286 894,287 887,289 884,299 886,317 889,325 892,328 898,328 908,318 912,312 913,321 920,310 920,278 925,274 927,257 943,234 950,231 954,227 965,230 971,233 973,224 982,218 988,228 "/>
  <polygon id="britain" class="fil1" points="845,325 841,330 842,333 851,333 851,336 849,339 850,347 855,357 859,366 865,368 868,373 867,377 864,379 863,381 866,383 864,386 858,388 848,387 832,394 827,391 842,383 840,381 832,381 837,373 838,367 844,367 843,355 836,354 833,352 834,343 829,343 834,328 842,322 845,325 "/>
  <polygon id="ulster" class="fil1" points="829,350 822,351 822,357 826,360 831,359 833,356 829,350 "/>
  <polygon id="ireland" class="fil1" points="831,361 829,373 812,379 807,379 803,376 803,374 812,369 809,364 810,358 817,358 820,350 820,357 826,362 831,361 "/>
  <polygon id="sweden" class="fil1" points="951,233 955,237 963,237 967,245 968,258 958,265 958,273 951,283 946,283 941,293 941,302 951,309 950,313 946,319 941,324 941,340 932,343 929,350 925,350 923,338 913,324 921,311 922,279 927,276 928,257 944,235 951,233 "/>
  <polygon id="estonia_1" class="fil2" points="993,329 979,327 979,335 992,343 998,341 997,335 993,329 "/>
  <polygon id="hiumaa" class="fil2" points="970,322 967,322 965,323 966,325 969,326 971,323 970,322 "/>
  <polygon id="saaremaa" class="fil2" points="969,330 966,330 961,336 961,340 963,340 966,340 972,335 973,334 969,330 "/>
  <polygon id="poland" class="fil2" points="979,378 981,381 982,384 980,388 977,394 974,395 970,394 968,394 963,396 957,394 947,387 938,382 934,376 933,362 941,356 950,353 954,352 953,355 954,356 970,357 973,357 979,365 978,369 978,373 979,378 "/>
  <polygon id="denmark" class="fil1" points="908,330 899,339 899,345 903,355 909,354 908,346 912,341 912,338 909,330 908,330 "/>
  <polygon id="sjlland" class="fil1" points="918,346 916,346 913,349 913,352 919,352 920,348 918,346 "/>
  <polygon id="gotland" class="fil2" points="953,327 948,330 951,335 954,332 953,327 "/>
  <polygon id="switzerland" class="fil1" points="900,408 891,417 891,418 895,417 898,422 904,420 908,423 909,422 914,414 913,413 908,413 906,408 900,408 "/>
  <polygon id="bosnia" class="fil2" points="945,427 944,429 958,443 963,436 963,433 959,427 945,427 "/>
  <polygon id="malta" class="fil2" points="941,493 937,493 937,497 940,498 942,497 941,493 "/>
  <polygon id="moldova" class="fil2" points="999,404 1005,414 1004,420 1007,420 1012,411 1006,403 1002,401 999,404 "/>
  <polygon id="serbia_x0020_and_x0020_montenegro" class="fil1" points="967,418 963,422 961,422 960,426 965,432 965,436 959,445 960,448 963,448 966,445 968,444 970,447 978,445 977,433 967,418 "/>
  <polygon id="thrace" class="fil2" points="1003,450 1003,457 1009,455 1012,453 1011,450 1008,447 1003,450 "/>
 </g>
</svg>
