<?xml version="1.0" encoding="UTF-8"?>
<!DOCTYPE svg PUBLIC "-//W3C//DTD SVG 1.1//EN" "http://www.w3.org/Graphics/SVG/1.1/DTD/svg11.dtd">
<!-- Creator: CorelDRAW X6 -->
<svg xmlns="http://www.w3.org/2000/svg" xml:space="preserve" width="1920px" height="1140px" version="1.1" style="shape-rendering:geometricPrecision; text-rendering:geometricPrecision; image-rendering:optimizeQuality; fill-rule:evenodd; clip-rule:evenodd"
viewBox="0 0 1920 1140"
 xmlns:xlink="http://www.w3.org/1999/xlink"
 baseProfile="tiny"
 xmlns:svg="http://www.w3.org/2000/svg">
 <defs>
  <style type="text/css">
   <![CDATA[
    .str0 {stroke:#E6E6E6;stroke-width:0.9}
    .fil0 {fill:#F0F0F0}
   ]]>
  </style>
 </defs>
 <g id="Layer_x0020_1">
  <metadata id="CorelCorpID_0Corel-Layer"/>
  <polygon id="kalimantan" class="fil0" points="1561,691 1556,710 1529,719 1521,709 1517,710 1524,738 1535,740 1550,745 1550,751 1557,750 1566,736 1566,725 1572,714 1578,715 1571,700 1570,690 1561,691 "/>
  <polygon id="mexico" class="fil0" points="177,478 187,511 182,514 183,520 192,527 192,540 203,551 198,519 192,498 193,483 199,484 201,489 199,501 227,556 227,575 249,602 274,613 284,607 299,619 307,610 304,601 316,597 320,599 323,595 329,595 340,576 335,571 314,576 309,590 297,593 282,587 276,566 280,540 270,534 266,509 262,507 255,515 246,510 243,494 210,490 193,477 177,478 "/>
  <polygon id="estonia" class="fil0" points="994,302 982,302 974,307 974,310 979,315 994,317 994,302 "/>
  <polygon id="algeria" class="fil0" points="900,483 891,480 854,487 846,493 851,518 837,518 828,532 807,537 807,547 876,600 887,601 926,570 922,565 915,564 911,557 911,527 908,524 908,516 900,508 899,500 903,497 901,488 900,483 "/>
  <polygon id="morocco" class="fil0" points="845,493 820,493 815,504 804,509 794,534 776,545 751,587 776,586 777,574 783,574 783,557 805,557 806,536 827,531 835,516 849,516 845,493 "/>
  <polygon id="senegal" class="fil0" points="762,618 754,624 752,627 751,631 755,633 765,633 772,631 772,634 772,639 778,642 780,643 788,644 788,640 781,631 772,619 767,617 762,618 "/>
  <polygon id="liberia" class="fil0" points="784,680 808,695 807,684 800,675 793,669 784,680 "/>
  <polygon id="burkina" class="fil0" points="849,626 857,626 870,644 858,653 850,650 838,651 836,657 826,658 824,654 827,643 849,626 "/>
  <polygon id="ghana" class="fil0" points="836,675 838,681 845,691 848,690 858,685 857,654 850,652 839,652 836,675 "/>
  <polygon id="togo" class="fil0" points="859,684 865,681 865,659 861,652 859,654 859,684 "/>
  <polygon id="benin" class="fil0" points="867,680 871,680 872,667 877,659 877,645 872,644 863,651 867,659 867,680 "/>
  <polygon id="nigeria" class="fil0" points="873,680 881,680 892,692 897,693 900,691 906,690 908,682 916,677 925,677 941,647 941,641 933,635 919,642 899,641 890,635 883,637 879,643 879,660 874,668 873,680 "/>
  <polygon id="tunisia" class="fil0" points="902,482 914,477 918,480 918,483 916,486 916,490 918,491 918,498 916,502 916,504 924,507 918,517 915,517 915,525 912,525 910,523 910,515 902,507 901,501 905,498 902,482 "/>
  <polygon id="egypt" class="fil0" points="1003,516 1009,516 1020,519 1025,519 1032,514 1035,514 1040,517 1047,517 1049,517 1053,530 1054,534 1055,540 1053,542 1050,540 1046,526 1042,526 1041,531 1044,539 1064,564 1065,574 1059,581 1004,580 1003,516 "/>
  <polygon id="cameroon" class="fil0" points="908,691 915,697 914,707 952,706 955,702 945,691 943,687 950,674 945,665 941,663 941,658 946,656 946,642 942,642 942,649 926,678 917,679 910,684 908,691 "/>
  <polygon id="ethiopia" class="fil0" points="1062,664 1078,629 1093,629 1107,641 1106,651 1117,651 1118,657 1135,667 1146,668 1125,689 1098,698 1091,698 1078,688 1074,685 1064,672 1058,672 1057,665 1062,664 "/>
  <polygon id="gabon" class="fil0" points="926,709 926,714 914,714 907,728 924,747 928,743 928,740 925,738 925,736 932,731 938,736 944,736 944,714 934,713 934,708 926,709 "/>
  <polygon id="rwanda" class="fil0" points="1037,724 1043,730 1043,736 1033,736 1033,729 1037,724 "/>
  <polygon id="uganda" class="fil0" points="1038,722 1044,729 1049,726 1060,724 1061,724 1062,720 1068,707 1063,696 1046,696 1046,701 1048,703 1048,707 1038,722 "/>
  <polygon id="kenya" class="fil0" points="1065,695 1071,707 1064,721 1063,725 1097,747 1108,730 1102,725 1102,704 1109,696 1098,700 1090,700 1077,689 1073,687 1066,688 1065,690 1065,695 "/>
  <polygon id="mozambique" class="fil0" points="1044,882 1050,887 1064,878 1066,866 1066,846 1088,828 1091,828 1105,815 1102,789 1067,794 1068,801 1074,806 1076,820 1064,832 1061,825 1062,817 1055,810 1038,817 1054,825 1054,848 1044,864 1044,882 "/>
  <polygon id="namibia" class="fil0" points="948,901 955,901 960,905 970,905 972,877 972,858 979,857 981,837 997,837 1003,832 993,832 980,834 966,828 926,828 927,840 940,860 938,870 938,875 948,901 "/>
  <polygon id="botswana" class="fil0" points="974,878 979,879 978,892 983,893 994,883 1007,884 1010,876 1027,860 1007,837 1007,834 1004,833 998,839 983,839 980,859 974,860 974,878 "/>
  <path id="south_x0020_africa" class="fil0" d="M1029 861l-17 16 -4 10 -13 -2 -11 10 -7 -1 1 -14 -3 -1 -2 28 -13 0 -4 -5 -6 0 5 15 9 9 -7 8 4 10 10 4 8 -7 23 0 2 -2 10 -2 35 -35 0 -11 -4 5 -6 0 -7 -6 3 -9 6 -1 -1 -18 -13 -3 0 0zm-8 40l3 0 5 6 0 7 -6 3 0 2 -9 0 -3 -7 3 -5 8 -5 0 0z"/>
  <polygon id="australia" class="fil0" points="1517,914 1516,968 1508,974 1507,980 1518,987 1547,982 1561,982 1567,974 1599,968 1621,975 1620,984 1623,993 1640,990 1641,995 1630,1003 1634,1006 1642,1003 1640,1029 1656,1041 1665,1038 1669,1043 1696,1039 1721,998 1730,996 1749,962 1753,933 1742,918 1746,915 1737,887 1727,880 1729,841 1720,834 1717,813 1713,813 1698,864 1689,864 1670,845 1681,817 1661,813 1639,819 1633,837 1623,839 1622,827 1582,851 1583,860 1576,869 1561,869 1528,883 1517,914 "/>
  <polygon id="sumatra" class="fil0" points="1434,676 1433,681 1448,706 1452,706 1482,757 1495,758 1501,740 1491,734 1489,724 1434,676 "/>
  <polygon id="east_x0020_malaysia" class="fil0" points="1523,709 1530,717 1555,708 1560,689 1571,688 1581,681 1568,671 1565,666 1558,678 1561,685 1557,691 1549,689 1531,702 1532,710 1523,709 "/>
  <polygon id="sulawesi" class="fil0" points="1578,744 1583,750 1580,759 1580,761 1587,761 1589,738 1592,739 1596,759 1600,760 1604,752 1600,738 1597,733 1607,725 1604,722 1595,728 1592,728 1588,722 1589,719 1597,715 1609,718 1612,718 1621,710 1618,706 1609,713 1604,713 1596,709 1590,709 1584,719 1580,737 1578,744 "/>
  <polygon id="maluku" class="fil0" points="1631,704 1627,714 1633,722 1635,722 1638,717 1640,715 1637,712 1633,710 1631,704 "/>
  <polygon id="seram" class="fil0" points="1643,736 1635,738 1632,741 1634,744 1640,742 1644,740 1649,744 1651,743 1647,737 1643,736 "/>
  <polygon id="java" class="fil0" points="1500,764 1494,768 1495,771 1514,775 1523,777 1527,781 1538,782 1543,787 1548,785 1552,782 1544,778 1538,772 1520,768 1500,764 "/>
  <polygon id="bali" class="fil0" points="1561,782 1557,785 1559,788 1566,785 1561,782 "/>
  <polygon id="lombok" class="fil0" points="1569,780 1570,784 1575,786 1577,783 1575,780 1569,780 "/>
  <polygon id="sumba" class="fil0" points="1581,791 1575,792 1580,796 1584,796 1581,791 "/>
  <polygon id="flores" class="fil0" points="1583,784 1581,787 1591,788 1598,784 1594,783 1587,784 1585,782 1583,784 "/>
  <polygon id="timor" class="fil0" points="1614,786 1603,795 1604,797 1608,796 1614,791 1625,790 1622,786 1614,786 "/>
  <polygon id="taiwan" class="fil0" points="1573,527 1566,533 1565,544 1572,552 1574,551 1573,527 "/>
  <polygon id="domincan_x0020_republic" class="fil0" points="447,596 435,589 430,587 428,600 430,604 432,601 440,599 446,600 447,596 "/>
  <polygon id="sri_x0020_lanka" class="fil0" points="1344,656 1344,662 1345,666 1342,666 1343,676 1348,679 1355,674 1353,664 1354,661 1347,654 1344,656 "/>
  <polygon id="irian_x0020_jaya" class="fil0" points="1669,723 1660,724 1654,728 1657,733 1666,735 1666,737 1660,742 1663,752 1666,752 1669,742 1674,742 1676,752 1699,771 1699,786 1707,795 1711,795 1712,742 1698,732 1686,741 1681,744 1673,739 1673,724 1669,723 "/>
  <polygon id="guatemala" class="fil0" points="300,620 313,630 325,614 323,610 319,610 319,601 316,599 306,602 309,611 300,620 "/>
  <polygon id="el_x0020_salvador" class="fil0" points="314,630 325,635 324,627 319,624 314,630 "/>
  <polygon id="nicaragua" class="fil0" points="349,622 354,622 354,632 348,648 334,646 330,639 335,630 343,622 349,622 "/>
  <polygon id="costa_x0020_rica" class="fil0" points="348,649 351,655 354,658 350,668 344,664 334,654 334,648 348,649 "/>
  <polygon id="panama" class="fil0" points="355,659 352,669 362,672 369,673 370,665 377,662 383,665 385,669 388,668 391,661 383,658 377,655 371,659 364,663 357,660 355,659 "/>
  <polygon id="colombia" class="fil0" points="426,638 422,638 393,662 390,670 386,671 387,689 377,714 388,724 402,725 412,739 426,739 426,750 431,750 437,731 432,724 433,711 444,710 443,681 418,673 412,658 426,638 "/>
  <polygon id="venezuela" class="fil0" points="419,651 420,657 427,659 429,649 436,641 444,650 461,654 475,651 485,663 492,668 484,680 487,690 482,695 477,699 467,694 465,697 465,704 472,708 467,714 461,720 454,719 446,711 445,680 419,672 415,658 419,651 "/>
  <polygon id="ecuador" class="fil0" points="376,716 366,722 365,731 363,734 369,740 366,743 367,751 379,754 396,733 396,726 388,726 376,716 "/>
  <polygon id="peru" class="fil0" points="365,745 361,749 361,756 397,822 435,847 441,837 442,815 439,802 429,784 423,786 420,789 408,775 411,759 425,750 424,741 409,740 402,728 398,726 398,734 379,756 366,753 365,745 "/>
  <polygon id="bolivia" class="fil0" points="437,795 455,787 461,788 464,804 491,813 496,827 507,828 512,840 508,850 490,852 484,869 469,869 465,868 457,876 453,875 439,843 443,837 444,815 441,801 437,795 "/>
  <polygon id="paraguay" class="fil0" points="508,852 513,857 512,868 526,868 536,881 535,892 529,903 515,903 515,898 518,888 505,880 494,880 486,871 492,854 508,852 "/>
  <polygon id="uruguay" class="fil0" points="527,922 522,927 524,952 538,956 555,938 527,922 "/>
  <polygon id="argentina" class="fil0" points="538,892 542,896 526,920 520,926 522,953 534,968 524,986 516,989 508,989 510,1003 496,1008 499,1020 491,1046 501,1055 496,1068 486,1083 491,1094 479,1096 469,1083 467,1045 452,980 457,957 447,928 453,890 459,883 458,877 466,870 483,871 493,882 504,882 516,889 513,897 513,905 530,904 538,892 "/>
  <polygon id="tierra_x0020_del_x0020_fuego_x0020_chile" class="fil0 str0" points="494,1099 484,1119 500,1120 501,1107 494,1099 "/>
  <polygon id="tierra_x0020_del_x0020_fuego_x0020_argentina" class="fil0" points="502,1109 503,1121 512,1120 520,1115 506,1112 502,1109 "/>
  <polygon id="chile" class="fil0" points="491,1095 484,1103 483,1112 469,1104 455,1084 451,1077 457,1069 456,1060 450,1057 444,1053 446,1048 453,1046 454,1015 443,1009 436,848 438,845 452,877 456,877 458,882 452,889 445,928 454,957 450,980 466,1046 467,1084 479,1097 491,1095 "/>
  <polygon id="chiloe" class="fil0" points="445,1015 442,1019 443,1026 446,1027 448,1017 445,1015 "/>
  <polygon id="brazil" class="fil0" points="556,937 570,911 570,889 595,873 609,873 620,854 622,819 618,809 645,785 646,758 609,740 566,727 545,725 551,713 549,695 545,694 538,707 535,712 526,708 496,718 486,706 487,692 478,702 467,696 466,698 466,702 475,707 462,722 453,721 445,713 435,713 434,723 439,730 433,751 425,752 413,760 410,775 420,787 422,784 430,782 436,793 455,785 462,786 467,803 493,811 497,825 508,826 514,840 510,851 515,858 514,867 527,866 538,880 537,890 544,896 528,921 556,937 "/>
  <polygon id="belize" class="fil0" points="321,601 321,608 322,608 329,597 324,597 321,601 "/>
  <polygon id="russia" class="fil0" points="1639,150 1643,164 1650,166 1658,154 1654,146 1655,138 1667,138 1664,144 1665,164 1649,204 1650,213 1650,227 1680,271 1686,273 1686,237 1692,232 1686,217 1691,211 1679,196 1673,196 1671,170 1688,166 1689,158 1697,156 1702,160 1708,136 1718,119 1726,115 1733,115 1733,107 1722,105 1706,92 1714,83 1707,68 1713,63 1719,72 1736,78 1753,79 1756,72 1746,62 1757,48 1733,40 1727,52 1720,42 1677,28 1637,35 1631,38 1631,41 1639,45 1638,56 1623,49 1588,63 1582,50 1558,50 1548,62 1509,53 1474,60 1470,71 1475,73 1475,81 1441,85 1443,96 1412,90 1419,76 1387,74 1390,89 1380,94 1371,86 1336,92 1322,104 1322,112 1313,112 1312,104 1340,80 1340,63 1322,59 1299,66 1289,56 1285,56 1279,67 1284,72 1253,89 1226,109 1210,131 1210,141 1227,148 1219,154 1200,148 1193,154 1182,141 1179,146 1192,185 1195,186 1204,182 1208,185 1208,192 1200,189 1195,193 1198,200 1196,218 1179,220 1178,214 1187,208 1190,192 1179,178 1175,153 1158,150 1156,159 1159,163 1152,169 1155,186 1165,190 1167,202 1157,196 1131,191 1128,199 1106,207 1103,202 1076,217 1075,227 1064,229 1068,221 1068,214 1057,210 1050,213 1056,224 1060,232 1060,238 1052,236 1050,234 1042,243 1046,251 1028,250 1034,258 1032,261 1023,261 1016,256 1014,242 1003,238 1003,233 1027,238 1039,239 1045,230 1040,222 1005,208 994,211 989,215 991,223 996,224 995,236 1010,273 999,291 998,295 1004,299 999,302 995,302 996,318 1001,325 1001,332 1007,332 1016,336 1026,349 1026,353 1023,358 1030,358 1037,360 1047,374 1071,376 1070,392 1062,399 1063,402 1055,411 1053,419 1058,426 1074,431 1080,427 1122,443 1123,439 1115,431 1115,420 1109,419 1110,410 1119,400 1103,388 1105,372 1121,361 1141,362 1144,368 1164,369 1178,361 1171,353 1172,338 1210,319 1239,332 1249,324 1278,351 1299,349 1307,356 1327,358 1341,340 1358,347 1367,349 1376,341 1368,335 1375,325 1395,331 1400,340 1408,340 1414,337 1428,336 1430,340 1447,341 1458,329 1481,332 1488,329 1490,316 1483,300 1490,294 1513,294 1534,319 1561,334 1569,334 1570,328 1580,322 1581,357 1572,358 1572,366 1577,372 1576,380 1580,382 1582,376 1585,377 1587,380 1597,377 1607,349 1608,314 1595,285 1579,266 1572,267 1572,273 1554,266 1561,251 1567,211 1591,203 1603,196 1616,196 1613,200 1616,205 1628,194 1634,194 1633,187 1623,185 1630,159 1639,150 "/>
  <polygon id="china" class="fil0" points="1322,359 1314,378 1304,377 1293,401 1303,413 1284,439 1274,437 1267,445 1269,450 1277,451 1280,460 1288,461 1311,491 1311,506 1323,513 1335,511 1351,520 1370,526 1379,525 1389,524 1411,510 1418,511 1420,517 1426,519 1434,531 1429,543 1432,551 1441,554 1443,564 1454,565 1455,560 1471,552 1481,553 1492,565 1500,562 1505,562 1507,568 1511,569 1516,561 1537,553 1557,530 1563,507 1563,493 1555,491 1560,486 1559,477 1538,456 1538,446 1544,438 1550,436 1550,430 1535,430 1533,438 1526,436 1517,427 1522,413 1530,405 1537,405 1536,418 1540,421 1549,412 1552,411 1551,404 1560,394 1566,394 1570,382 1574,380 1575,372 1570,368 1570,356 1578,356 1578,325 1572,329 1570,337 1560,337 1532,321 1512,296 1491,296 1486,301 1493,316 1490,330 1482,334 1477,333 1477,347 1482,348 1491,345 1502,350 1502,356 1494,356 1487,370 1481,371 1460,399 1438,408 1423,409 1413,402 1398,410 1382,405 1379,395 1352,393 1338,370 1332,370 1328,360 "/>
  <polygon id="kazakhstan" class="fil0" points="1120,399 1129,395 1139,395 1140,410 1134,410 1130,417 1135,427 1144,432 1145,437 1148,436 1151,433 1155,434 1158,438 1164,438 1164,432 1160,421 1158,412 1169,408 1184,410 1193,419 1214,417 1225,434 1239,434 1243,428 1247,427 1248,420 1255,420 1259,424 1263,416 1295,420 1300,413 1291,402 1303,375 1313,376 1320,359 1306,358 1299,350 1277,353 1249,326 1240,335 1210,321 1174,339 1173,352 1181,362 1165,371 1143,370 1139,364 1122,363 1106,373 1106,387 1120,399 "/>
  <polygon id="tajikistan" class="fil0" points="1235,449 1244,438 1248,438 1249,440 1245,443 1245,446 1247,448 1260,449 1264,447 1266,447 1268,451 1275,452 1279,460 1278,463 1277,463 1275,460 1272,459 1266,460 1266,466 1260,465 1260,458 1256,454 1249,460 1250,463 1244,465 1241,465 1241,453 1235,449 "/>
  <polygon id="pakistan" class="fil0" points="1220,531 1226,539 1225,543 1218,546 1217,553 1226,553 1229,551 1245,551 1260,564 1261,557 1272,557 1273,550 1261,539 1264,533 1275,532 1291,500 1282,493 1279,482 1300,480 1287,463 1281,461 1278,464 1276,465 1264,472 1268,479 1264,484 1258,504 1244,513 1242,523 1220,531 "/>
  <polygon id="india" class="fil0" points="1323,666 1333,662 1339,640 1339,614 1372,578 1372,570 1379,567 1379,557 1371,543 1375,535 1385,544 1397,544 1397,549 1393,553 1394,555 1400,555 1402,563 1403,563 1408,554 1411,531 1419,526 1419,518 1416,512 1411,512 1391,525 1392,533 1378,533 1373,527 1371,527 1371,536 1341,534 1323,525 1322,515 1309,507 1309,492 1301,482 1281,484 1283,492 1293,500 1276,534 1265,535 1263,539 1274,549 1274,559 1263,559 1262,564 1271,564 1271,568 1264,571 1269,579 1277,582 1282,578 1284,571 1287,570 1291,574 1290,582 1287,586 1288,593 1323,666 "/>
  <polygon id="thailand" class="fil0" points="1450,575 1457,584 1457,595 1459,596 1470,591 1473,591 1486,607 1485,617 1481,616 1477,614 1474,614 1469,623 1470,627 1474,629 1474,635 1471,636 1461,629 1461,623 1457,623 1456,626 1455,653 1461,664 1472,675 1472,678 1466,678 1460,670 1455,670 1447,664 1445,658 1448,653 1449,648 1453,642 1453,629 1444,617 1444,615 1447,612 1446,603 1435,589 1436,581 1450,575 "/>
  <polygon id="malaysia" class="fil0" points="1456,672 1460,681 1461,694 1467,703 1481,711 1486,712 1485,703 1481,692 1474,678 1473,680 1465,680 1459,672 1456,672 "/>
  <polygon id="cambodia" class="fil0" points="1472,637 1481,647 1498,635 1499,615 1491,621 1486,619 1480,618 1477,616 1475,616 1471,623 1472,626 1476,629 1476,635 1472,637 "/>
  <polygon id="georgia" class="fil0" points="1075,432 1082,442 1091,446 1096,446 1105,443 1108,440 1080,429 1075,432 "/>
  <polygon id="armenia" class="fil0" points="1105,445 1116,458 1113,462 1105,461 1096,452 1097,447 1105,445 "/>
  <polygon id="azerbaijan" class="fil0" points="1109,440 1107,444 1117,457 1121,456 1126,462 1129,451 1135,452 1135,449 1125,440 1123,446 1109,440 "/>
  <polygon id="turkey" class="fil0" points="1082,443 1077,448 1059,448 1049,442 1038,441 1027,450 1016,450 1015,456 1002,456 997,461 997,464 1000,466 1000,469 999,472 1000,475 1004,473 1008,477 1007,480 1006,482 1008,485 1019,487 1027,484 1027,479 1030,480 1040,485 1049,484 1054,480 1056,481 1056,485 1060,485 1063,479 1092,476 1105,474 1101,470 1101,464 1104,461 1095,454 1095,447 1090,447 1082,443 "/>
  <polygon id="lebanon" class="fil0" points="1055,493 1055,497 1053,504 1059,504 1060,495 1055,493 "/>
  <polygon id="finland" class="fil0" points="970,245 975,247 977,252 975,256 961,271 959,279 962,290 972,298 986,291 998,290 1009,273 1001,254 993,236 994,225 990,224 988,216 982,205 975,210 972,221 965,217 954,214 952,217 956,221 963,221 969,230 970,245 "/>
  <polygon id="lithuania" class="fil0" points="979,326 974,326 968,332 963,332 963,340 960,346 971,346 975,345 978,349 986,349 993,340 992,334 979,326 "/>
  <polygon id="belarus" class="fil0" points="979,351 982,356 980,361 981,364 982,368 989,364 997,364 1003,367 1017,367 1022,357 1024,353 1024,350 1015,337 1007,334 1000,333 994,335 995,341 986,351 979,351 "/>
  <polygon id="spain" class="fil0" points="845,434 817,434 812,432 809,432 806,439 807,446 817,447 819,451 814,477 814,481 822,485 830,486 848,482 856,471 856,460 871,447 872,441 858,441 845,434 "/>
  <polygon id="portugal" class="fil0" points="807,448 806,466 802,470 802,472 805,476 803,482 806,483 813,482 813,476 817,452 816,448 807,448 "/>
  <polygon id="majorca" class="fil0" points="872,461 869,462 869,465 874,465 876,462 872,461 "/>
  <polygon id="sardinia" class="fil0" points="907,452 902,455 902,466 907,467 910,464 910,453 907,452 "/>
  <polygon id="corsica" class="fil0" points="908,439 904,443 903,447 907,449 908,448 909,443 908,439 "/>
  <polygon id="france" class="fil0" points="871,378 866,379 856,389 853,389 850,387 847,387 845,393 831,394 832,397 841,403 852,412 852,422 846,433 859,439 872,439 876,435 884,435 886,437 894,436 899,431 893,425 893,421 894,416 891,412 887,414 886,410 896,399 896,393 890,389 886,388 871,378 "/>
  <polygon id="netherlands" class="fil0" points="891,355 882,360 884,362 884,367 882,366 880,363 874,371 882,373 886,377 887,377 888,369 894,367 891,355 "/>
  <polygon id="belgium" class="fil0" points="873,373 872,377 887,386 891,387 891,383 887,378 885,379 882,375 873,373 "/>
  <polygon id="germany" class="fil0" points="894,355 901,353 901,348 908,347 911,350 915,351 921,348 926,350 930,354 931,368 936,375 930,375 920,382 921,384 929,392 929,396 921,400 913,401 911,405 907,405 905,400 898,399 898,392 892,388 893,383 889,377 890,370 895,368 894,355 "/>
  <polygon id="czech" class="fil0" points="931,391 937,391 940,391 945,395 955,387 946,380 937,376 930,377 922,382 931,391 "/>
  <polygon id="slovakia" class="fil0" points="947,396 948,397 948,399 965,399 977,394 977,389 974,390 971,388 969,388 964,390 956,388 947,396 "/>
  <polygon id="austria" class="fil0" points="914,402 913,405 914,407 919,406 923,406 928,410 938,408 945,404 947,401 946,397 940,393 931,393 930,398 921,402 914,402 "/>
  <polygon id="hungary" class="fil0" points="949,401 946,405 946,411 950,413 963,413 980,399 980,396 978,395 966,401 949,401 "/>
  <polygon id="slovenia" class="fil0" points="944,406 939,410 929,412 931,418 938,418 945,412 944,406 "/>
  <polygon id="croatia" class="fil0" points="946,413 939,419 931,419 930,425 934,426 935,423 938,426 940,433 955,440 957,439 942,423 943,420 958,419 959,415 950,415 946,413 "/>
  <polygon id="italy" class="fil0" points="896,417 895,420 895,424 900,430 908,430 926,451 937,454 944,460 945,474 949,472 952,464 951,459 956,458 957,455 942,448 929,434 923,426 922,418 929,417 927,412 923,408 919,408 914,409 909,416 906,418 901,415 896,417 "/>
  <polygon id="sicily" class="fil0" points="939,473 936,471 926,473 926,476 936,481 937,482 940,483 939,473 "/>
  <polygon id="ukraine" class="fil0" points="989,366 983,369 984,376 979,388 979,393 981,395 999,396 1004,392 1009,394 1016,404 1011,414 1017,415 1026,406 1031,407 1035,410 1031,415 1037,423 1042,423 1045,418 1051,416 1051,412 1040,410 1041,405 1051,405 1063,396 1068,391 1069,377 1046,375 1037,362 1030,359 1022,360 1018,368 1002,369 997,366 989,366 "/>
  <polygon id="romania" class="fil0" points="982,397 981,400 969,410 979,426 986,430 998,430 1002,427 1007,426 1011,429 1018,421 1017,417 1010,415 1005,415 1005,408 999,398 982,397 "/>
  <polygon id="bulgaria" class="fil0" points="980,429 981,439 984,447 998,447 1004,443 1010,440 1008,434 1010,430 1007,428 1002,429 999,432 985,432 980,429 "/>
  <polygon id="albania" class="fil0" points="964,445 964,454 967,460 969,460 973,453 971,450 970,443 967,441 964,445 "/>
  <polygon id="macedonia" class="fil0" points="979,441 972,443 972,449 974,451 983,447 979,441 "/>
  <polygon id="greece" class="fil0" points="970,461 970,464 980,469 985,471 982,474 976,474 976,477 978,481 984,484 987,485 987,477 991,472 980,459 981,455 984,455 988,458 990,457 991,452 1003,452 1003,445 998,449 984,448 975,453 970,461 "/>
  <polygon id="crete" class="fil0" points="992,489 995,489 997,492 1002,492 1005,490 1006,492 1004,495 994,495 992,493 990,491 992,489 "/>
  <polygon id="papua_x0020_new_x0020_guinea" class="fil0" points="1714,742 1713,795 1721,794 1730,783 1739,783 1744,788 1746,803 1763,812 1767,810 1767,805 1754,793 1747,778 1752,775 1748,766 1740,766 1738,757 1717,743 1714,742 "/>
  <polygon id="mauretania" class="fil0" points="751,588 756,594 755,621 762,616 767,615 773,617 781,628 789,623 824,623 815,564 825,563 807,550 807,559 785,559 785,575 779,575 778,588 751,588 "/>
  <polygon id="gambia" class="fil0" points="756,635 755,637 770,637 771,635 771,633 766,634 756,635 "/>
  <polygon id="casamance" class="fil0" points="755,639 758,645 759,641 778,643 770,639 755,639 "/>
  <polygon id="bissau" class="fil0" points="759,648 762,654 771,647 771,645 761,643 759,648 "/>
  <polygon id="guinee" class="fil0" points="763,656 770,666 778,658 787,658 794,667 800,672 803,667 805,666 805,656 800,644 788,646 772,644 772,648 763,656 "/>
  <polygon id="sierra_x0020_leone" class="fil0" points="771,667 783,678 791,668 786,659 779,660 771,667 "/>
  <polygon id="ivoire" class="fil0" points="810,696 819,689 830,687 842,690 836,681 834,675 836,659 826,660 821,655 811,655 806,656 807,667 804,668 801,674 809,683 810,696 "/>
  <polygon id="mali" class="fil0" points="783,630 789,625 826,625 817,566 827,565 874,601 880,602 878,622 849,625 826,642 822,653 806,654 802,642 790,643 790,639 783,630 "/>
  <polygon id="niger" class="fil0" points="872,643 877,643 882,635 890,634 899,639 918,640 933,634 938,629 938,623 949,613 951,590 945,576 928,572 888,603 882,602 880,624 860,626 872,643 "/>
  <polygon id="libya" class="fil0" points="913,527 916,526 917,518 919,518 926,507 943,512 947,519 964,527 972,523 972,520 968,516 968,513 974,508 987,508 991,514 1001,516 1002,595 995,595 951,572 946,575 928,570 923,564 916,563 913,556 913,527 "/>
  <polygon id="chad" class="fil0" points="940,630 940,624 951,614 953,589 947,576 951,574 997,598 997,621 989,628 989,640 994,651 985,651 969,666 969,671 957,670 957,673 951,672 946,663 943,662 943,659 948,656 948,641 942,640 935,635 940,630 940,630 "/>
  <polygon id="sudan" class="fil0" points="999,622 999,597 1005,597 1004,583 1059,583 1067,575 1085,603 1075,614 1075,631 1060,662 1055,665 1057,673 1063,673 1072,686 1065,687 1063,690 1063,694 1042,694 1040,691 1026,690 999,663 1002,661 1003,655 996,651 991,640 991,629 999,622 "/>
  <polygon id="eritrea" class="fil0" points="1078,627 1077,614 1085,604 1088,606 1092,620 1112,635 1108,640 1094,627 1078,627 "/>
  <polygon id="djibouti" class="fil0" points="1109,642 1108,649 1117,649 1117,638 1114,636 1109,642 "/>
  <polygon id="somaliland" class="fil0" points="1118,649 1127,655 1130,655 1152,648 1154,656 1152,662 1148,666 1136,665 1119,655 1118,649 "/>
  <polygon id="soqotra" class="fil0" points="1170,638 1174,643 1181,639 1183,638 1180,636 1174,637 1170,638 "/>
  <polygon id="somalia" class="fil0" points="1153,647 1163,644 1166,646 1166,654 1157,679 1110,729 1105,725 1104,704 1111,696 1126,691 1148,668 1154,663 1156,655 1153,647 "/>
  <polygon id="centrafrique" class="fil0" points="946,690 956,701 960,696 967,696 968,691 974,687 987,696 994,689 1023,690 996,662 1000,660 1001,655 994,653 986,653 971,667 971,673 959,672 959,675 952,674 945,687 946,690 "/>
  <polygon id="sao_x0020_tome" class="fil0" points="893,718 895,717 897,719 895,721 893,721 893,718 "/>
  <polygon id="principe" class="fil0" points="898,710 901,710 903,712 901,714 899,714 898,710 "/>
  <polygon id="bioko" class="fil0" points="906,697 905,702 908,703 911,701 910,697 906,697 "/>
  <polygon id="equatorial_x0020_guinea" class="fil0" points="915,709 915,712 924,712 924,709 915,709 "/>
  <polygon id="congo" class="fil0" points="936,708 936,711 946,712 947,738 937,738 932,734 928,736 928,737 930,739 930,744 925,749 926,752 932,747 935,747 936,750 940,751 954,740 953,732 956,726 964,719 967,698 961,698 954,708 936,708 "/>
  <polygon id="cabinda" class="fil0" points="927,753 930,758 935,753 934,748 933,748 927,753 "/>
  <polygon id="drc" class="fil0" points="933,758 955,758 959,764 959,769 961,770 972,770 975,764 980,764 981,766 988,766 989,788 1000,788 1000,790 1029,802 1030,805 1036,805 1035,796 1025,791 1025,784 1030,773 1041,773 1031,742 1032,729 1046,707 1046,703 1044,702 1044,696 1041,696 1039,692 995,690 987,698 974,690 969,692 966,721 958,727 955,733 956,741 941,753 937,752 937,754 933,758 "/>
  <polygon id="burundi" class="fil0" points="1033,738 1043,738 1040,746 1038,748 1035,748 1033,742 1033,738 "/>
  <polygon id="tanzania" class="fil0" points="1064,792 1102,787 1093,771 1093,755 1096,748 1060,725 1049,727 1045,730 1045,737 1042,746 1039,749 1036,749 1043,774 1055,780 1063,780 1064,792 "/>
  <polygon id="zambia" class="fil0" points="987,820 994,830 1004,831 1008,833 1019,833 1029,819 1055,808 1058,797 1054,782 1041,774 1031,775 1027,785 1027,790 1038,795 1038,807 1029,807 1027,803 1001,792 1000,801 987,801 987,820 "/>
  <polygon id="angola" class="fil0" points="931,760 939,788 938,796 928,808 926,827 967,827 981,832 992,830 985,822 985,799 998,799 998,790 988,789 986,768 981,768 979,766 976,766 973,773 960,773 957,770 958,765 954,760 931,760 "/>
  <polygon id="malawi" class="fil0" points="1057,809 1064,816 1064,825 1065,829 1074,819 1073,807 1068,803 1064,782 1056,782 1060,797 1057,809 "/>
  <polygon id="zimbabwe" class="fil0" points="1009,837 1028,859 1043,862 1053,847 1052,826 1036,818 1030,821 1021,834 1008,834 1009,837 "/>
  <polygon id="swaziland" class="fil0" points="1043,883 1038,884 1036,891 1040,894 1045,894 1049,888 1043,883 "/>
  <polygon id="lesotho" class="fil0" points="1015,908 1021,903 1024,903 1028,908 1028,912 1021,915 1021,916 1014,916 1013,911 1015,908 "/>
  <polygon id="greenland" class="fil0" points="571,101 568,106 574,111 571,117 579,126 588,124 600,122 614,138 624,163 616,178 627,177 633,180 633,188 620,188 627,195 636,197 617,223 614,239 619,251 616,259 621,275 631,287 634,286 640,284 641,294 645,299 652,299 658,277 676,256 702,245 718,225 726,228 742,228 755,215 770,209 772,199 762,190 754,187 749,175 760,169 777,178 783,171 774,166 794,139 790,128 781,127 785,117 796,111 820,90 813,83 786,85 772,99 780,81 771,79 766,88 758,81 737,84 743,74 778,73 769,62 731,55 716,57 717,65 701,59 702,54 690,56 688,62 700,66 688,75 679,65 666,62 665,71 652,71 648,61 628,58 618,63 617,70 604,69 596,72 596,80 596,84 581,87 574,83 569,90 576,98 591,96 592,101 581,106 571,101 "/>
  <polygon id="disko" class="fil0" points="618,192 621,198 620,204 616,204 612,199 613,195 618,192 "/>
  <polygon id="milne" class="fil0" points="764,178 774,181 773,189 763,184 761,181 764,178 "/>
  <polygon id="tasmania" class="fil0" points="1656,1060 1652,1076 1653,1086 1664,1086 1677,1066 1656,1060 "/>
  <polygon id="new_x0020_zealand_x0020_north_x0020_island" class="fil0" points="1843,1030 1846,1055 1843,1066 1831,1075 1832,1085 1832,1096 1835,1099 1866,1073 1866,1066 1859,1066 1848,1030 1843,1030 "/>
  <polygon id="new_x0020_zealand_x0020_south_x0020_island" class="fil0" points="1820,1085 1827,1096 1810,1112 1808,1121 1797,1122 1778,1140 1760,1132 1759,1126 1791,1112 1820,1085 "/>
  <polygon id="new_x0020_caledonia" class="fil0" points="1830,897 1829,901 1839,915 1844,917 1845,912 1830,897 "/>
  <polygon id="brunei" class="fil0" points="1557,680 1551,687 1556,689 1559,685 1557,680 "/>
  <polygon id="new_x0020_ireland" class="fil0" points="1773,744 1771,746 1782,756 1783,761 1786,761 1786,755 1783,752 1773,744 "/>
  <polygon id="new_x0020_britain" class="fil0" points="1779,757 1776,757 1775,763 1771,765 1760,767 1760,772 1772,771 1780,766 1780,758 1779,757 "/>
  <polygon id="bougainville" class="fil0" points="1792,766 1795,774 1800,778 1801,777 1801,772 1795,766 1792,766 "/>
  <polygon id="choiseul" class="fil0" points="1805,777 1806,782 1809,785 1812,783 1809,778 1805,777 "/>
  <polygon id="new_x0020_georgia" class="fil0" points="1809,790 1807,792 1809,797 1813,798 1812,795 1809,790 "/>
  <polygon id="santa_x0020_isabel" class="fil0" points="1815,787 1818,792 1822,797 1824,793 1821,788 1815,787 "/>
  <polygon id="malaita" class="fil0" points="1826,795 1828,801 1831,806 1833,800 1826,795 "/>
  <polygon id="santa_x0020_ana" class="fil0" points="1830,810 1829,812 1832,816 1835,816 1833,810 1830,810 "/>
  <polygon id="rennell" class="fil0" points="1822,819 1818,821 1821,825 1824,824 1822,819 "/>
  <polygon id="espiritu_x0020_santo" class="fil0" points="1860,847 1857,851 1859,855 1860,856 1862,853 1860,847 "/>
  <polygon id="malakula" class="fil0" points="1861,858 1862,861 1865,862 1867,861 1865,858 1861,858 "/>
  <polygon id="efate" class="fil0" points="1866,884 1864,886 1866,889 1870,887 1866,884 "/>
  <polygon id="fiji" class="fil0" points="1920,880 1917,883 1917,887 1920,891 1920,880 "/>
  <polygon id="palawan" class="fil0" points="1578,633 1576,637 1575,641 1564,654 1565,657 1569,656 1583,641 1578,633 "/>
  <polygon id="negros" class="fil0" points="1594,628 1594,639 1598,643 1599,651 1603,651 1605,647 1602,644 1601,631 1594,628 "/>
  <polygon id="cebu" class="fil0" points="1605,632 1605,642 1607,646 1611,641 1610,633 1605,632 "/>
  <polygon id="samar" class="fil0" points="1608,624 1612,629 1613,634 1617,634 1616,626 1612,623 1608,624 "/>
  <polygon id="path7462" class="fil0" points="1615,644 1616,650 1609,656 1603,656 1597,663 1597,666 1603,664 1607,662 1610,670 1617,675 1619,674 1621,671 1616,666 1619,664 1623,667 1625,663 1623,658 1622,648 1615,644 "/>
  <polygon id="luzon" class="fil0" points="1582,580 1576,584 1576,597 1584,613 1587,616 1591,613 1597,614 1598,620 1603,620 1605,617 1603,613 1599,610 1592,609 1588,603 1592,596 1593,590 1590,582 1582,580 "/>
  <polygon id="mindoro" class="fil0" points="1585,617 1586,623 1589,625 1591,622 1588,618 1585,617 "/>
  <polygon id="hainan" class="fil0" points="1514,574 1509,576 1505,580 1508,586 1513,587 1518,582 1519,576 1514,574 "/>
  <polygon id="kyushu" class="fil0" points="1607,459 1604,462 1605,467 1608,468 1610,478 1613,481 1617,477 1619,470 1614,462 1607,459 "/>
  <polygon id="shikoku" class="fil0" points="1626,452 1620,457 1620,464 1622,466 1630,459 1629,452 1626,452 "/>
  <polygon id="honshu" class="fil0" points="1618,439 1608,451 1609,453 1614,454 1624,447 1631,445 1637,453 1642,451 1644,444 1653,444 1661,433 1657,416 1655,407 1659,403 1649,388 1646,388 1641,394 1641,399 1643,402 1644,416 1638,424 1634,422 1631,428 1630,434 1633,438 1631,440 1626,436 1623,436 1620,438 1618,439 "/>
  <polygon id="hokkaido" class="fil0" points="1636,345 1632,348 1634,354 1637,357 1637,367 1633,368 1630,374 1639,386 1644,384 1645,381 1639,376 1643,371 1647,372 1650,375 1650,368 1659,361 1663,360 1659,353 1657,351 1654,353 1652,356 1646,355 1640,351 1636,345 "/>
  <polygon id="iturup" class="fil0" points="1667,339 1661,347 1661,351 1664,349 1671,341 1667,339 "/>
  <polygon id="urup" class="fil0" points="1674,327 1672,332 1672,336 1676,334 1679,327 1679,325 1674,327 "/>
  <polygon id="paramushir" class="fil0" points="1686,277 1684,281 1684,286 1686,286 1691,279 1686,277 "/>
  <polygon id="onekotan" class="fil0" points="1682,290 1682,299 1684,300 1686,297 1686,290 1682,290 "/>
  <polygon id="sakhalin" class="fil0" points="1597,257 1597,270 1614,296 1620,318 1630,338 1634,340 1638,337 1640,332 1625,316 1625,307 1628,306 1629,301 1600,259 1597,257 "/>
  <polygon id="bering_x0020_island" class="fil0" points="1713,216 1709,216 1712,220 1717,223 1718,222 1713,216 "/>
  <polygon id="medny" class="fil0" points="1721,218 1722,222 1728,224 1729,221 1721,218 "/>
  <polygon id="st._x0020_lawrence_x0020_island" class="fil0" points="1775,76 1770,80 1769,84 1771,86 1777,85 1782,86 1785,87 1785,77 1775,76 "/>
  <polygon id="kerguelen" class="fil0" points="1219,1067 1219,1077 1232,1080 1235,1072 1230,1073 1224,1075 1223,1068 1219,1067 "/>
  <polygon id="mauritius" class="fil0" points="1199,851 1195,855 1196,860 1203,854 1199,851 "/>
  <polygon id="reunion" class="fil0" points="1186,858 1182,859 1181,863 1184,864 1189,861 1186,858 "/>
  <polygon id="madagascar" class="fil0" points="1154,795 1149,806 1142,820 1128,821 1122,828 1123,849 1114,859 1115,876 1123,884 1131,883 1140,877 1138,867 1157,833 1153,828 1157,820 1162,822 1163,818 1159,801 1157,795 1154,795 "/>
  <polygon id="grande_x0020_comore" class="fil0" points="1123,792 1124,795 1128,795 1129,791 1123,792 "/>
  <polygon id="mayotte" class="fil0" points="1129,798 1130,802 1133,802 1134,797 1129,798 "/>
  <polygon id="aldabra" class="fil0" points="1176,764 1174,766 1178,769 1181,766 1176,764 "/>
  <polygon id="praslin" class="fil0" points="1194,744 1190,747 1193,751 1197,751 1194,744 "/>
  <polygon id="mahe" class="fil0" points="1196,756 1193,759 1195,762 1198,762 1199,756 1196,756 "/>
  <polygon id="male" class="fil0" points="1292,683 1292,689 1296,690 1297,685 1292,683 "/>
  <polygon id="maldive" class="fil0" points="1296,695 1296,702 1299,703 1301,699 1296,695 "/>
  <polygon id="gan" class="fil0" points="1297,708 1295,711 1297,713 1301,711 1297,708 "/>
  <polygon id="flores_0" class="fil0" points="682,460 679,463 684,466 685,462 682,460 "/>
  <polygon id="terceira" class="fil0" points="698,458 694,461 697,463 702,462 698,458 "/>
  <polygon id="pico" class="fil0" points="700,467 698,471 701,474 704,472 700,467 "/>
  <polygon id="sao_x0020_miguel" class="fil0" points="714,476 713,479 715,481 719,478 714,476 "/>
  <polygon id="madeira" class="fil0" points="758,502 756,505 758,508 762,506 758,502 "/>
  <polygon id="lanzarote" class="fil0" points="774,539 771,541 772,543 774,539 "/>
  <polygon id="gran_x0020_canaria" class="fil0" points="761,539 757,541 759,544 762,544 761,539 "/>
  <polygon id="tenerife" class="fil0" points="750,536 747,539 751,542 754,537 750,536 "/>
  <polygon id="santo_x0020_antao" class="fil0" points="714,618 710,620 713,623 716,621 714,618 "/>
  <polygon id="boa_x0020_vista" class="fil0" points="724,623 721,625 723,629 728,627 724,623 "/>
  <polygon id="santiago" class="fil0" points="718,629 715,632 718,636 721,635 718,629 "/>
  <polygon id="guadeloupe" class="fil0" points="476,603 472,604 473,607 477,604 476,604 476,603 "/>
  <polygon id="dominica" class="fil0" points="481,606 479,610 481,613 484,611 481,606 "/>
  <polygon id="martinique" class="fil0" points="487,617 485,619 487,623 490,622 487,617 "/>
  <polygon id="st._x0020_lucia" class="fil0" points="487,626 486,629 488,632 491,630 487,626 "/>
  <polygon id="st._x0020_vincent" class="fil0" points="487,634 485,636 487,640 490,638 487,634 "/>
  <polygon id="grenada" class="fil0" points="484,641 482,644 483,645 486,645 487,643 484,641 "/>
  <polygon id="trinidad" class="fil0" points="488,649 485,651 483,651 483,654 487,658 489,655 490,652 490,649 488,649 "/>
  <polygon id="puerto_x0020_rico" class="fil0" points="464,598 458,596 453,599 456,601 463,603 464,598 "/>
  <polygon id="haiti-dominican_x0020_border" class="fil0" points="420,586 417,589 421,591 421,596 412,597 413,602 416,602 417,600 428,600 430,604 432,601 439,599 446,600 447,596 435,589 428,586 420,586 "/>
  <polygon id="haiti" class="fil0" points="420,586 428,586 427,595 426,600 417,600 416,602 413,602 412,597 421,596 421,591 417,589 420,586 "/>
  <polygon id="falklands_x0020_west" class="fil0" points="543,1086 537,1085 532,1089 536,1093 543,1086 "/>
  <polygon id="falklands_x0020_east" class="fil0" points="549,1083 547,1089 541,1094 542,1095 551,1092 554,1087 549,1083 "/>
  <polygon id="iceland" class="fil0" points="754,246 750,243 745,247 740,252 740,254 746,255 746,259 743,262 744,263 750,263 750,271 759,272 765,275 771,276 781,271 789,260 789,253 785,249 780,245 779,246 776,250 773,250 770,246 765,247 760,252 756,255 754,254 754,249 756,248 754,246 "/>
  <polygon id="spitsbergen" class="fil0" points="930,110 927,106 919,110 905,110 902,118 910,126 914,125 919,116 923,119 920,126 919,134 922,140 930,127 940,115 936,112 930,110 "/>
  <polygon id="nordaustlandet" class="fil0" points="935,94 928,100 932,106 939,106 942,110 950,114 960,109 966,103 964,98 958,95 953,99 949,95 947,95 944,102 939,97 938,94 935,94 "/>
  <polygon id="edgeoya" class="fil0" points="949,121 944,125 940,129 942,132 946,133 952,130 956,127 953,122 949,121 "/>
  <polygon id="prince_x0020_george" class="fil0" points="1058,77 1062,79 1060,83 1060,89 1054,93 1048,93 1045,89 1045,84 1048,81 1053,81 1058,77 "/>
  <polygon id="salisbury" class="fil0" points="1072,73 1072,77 1076,80 1081,80 1086,76 1086,73 1082,73 1078,74 1076,71 1072,73 "/>
  <polygon id="wilczek" class="fil0" points="1094,73 1096,79 1101,79 1105,78 1103,73 1098,71 1094,73 "/>
  <polygon id="bell" class="fil0" points="1115,66 1111,65 1107,69 1109,72 1110,77 1115,74 1116,70 1115,66 "/>
  <polygon id="novaya_x0020_zemlya_x0020_north" class="fil0" points="1137,105 1136,111 1128,118 1109,122 1095,147 1092,154 1107,158 1109,149 1114,135 1125,129 1135,121 1142,118 1145,118 1145,108 1137,105 "/>
  <polygon id="novaya_x0020_zemlya_x0020_south" class="fil0" points="1089,160 1099,161 1103,173 1111,181 1108,187 1103,187 1098,182 1088,182 1083,176 1083,171 1090,170 1089,160 "/>
  <polygon id="komsomolets" class="fil0" points="1246,33 1241,30 1235,30 1234,33 1228,36 1224,38 1223,42 1233,43 1246,33 "/>
  <polygon id="october" class="fil0" points="1257,34 1255,39 1249,39 1241,45 1239,52 1244,52 1247,48 1254,53 1261,50 1266,46 1264,39 1261,35 1257,34 "/>
  <polygon id="bolshevik" class="fil0" points="1268,38 1270,48 1275,58 1279,50 1287,48 1287,43 1282,39 1268,38 "/>
  <polygon id="kotelny" class="fil0" points="1471,21 1477,26 1481,24 1482,18 1474,12 1468,15 1455,17 1455,23 1440,23 1440,33 1457,45 1461,42 1460,33 1471,31 1469,27 1465,23 1471,21 "/>
  <polygon id="novaya_x0020_sibir" class="fil0" points="1486,15 1490,23 1505,21 1509,16 1508,11 1504,9 1500,12 1489,15 1486,15 "/>
  <polygon id="lyakhovsky" class="fil0" points="1485,44 1478,42 1474,47 1472,53 1482,52 1489,48 1485,44 "/>
  <polygon id="wrangel" class="fil0" points="1679,2 1673,0 1666,3 1662,8 1667,14 1679,9 1681,6 1679,2 "/>
  <polygon id="cuba" class="fil0" points="356,567 356,570 367,570 373,567 373,569 385,572 395,581 392,584 393,588 401,590 409,586 413,582 408,580 380,563 370,562 356,567 "/>
  <polygon id="bimini" class="fil0" points="396,551 393,550 393,555 396,558 399,555 396,551 "/>
  <polygon id="andros" class="fil0" points="401,559 398,561 401,566 403,563 401,559 "/>
  <polygon id="inagua" class="fil0" points="413,563 410,562 410,565 413,569 415,566 413,563 "/>
  <polygon id="eleuthera" class="fil0" points="412,558 405,555 404,548 406,547 409,552 411,554 412,558 "/>
  <polygon id="grand_x0020_bahama" class="fil0" points="405,544 402,544 401,539 398,538 400,536 404,537 407,539 405,544 "/>
  <polygon id="jamaica" class="fil0" points="395,595 387,596 387,599 391,601 396,601 399,598 395,595 "/>
  <polygon id="alaska" class="fil0" points="81,90 63,94 67,115 86,120 88,124 58,133 42,161 48,190 57,196 65,189 67,193 58,204 23,220 1,225 0,233 51,218 73,213 92,189 114,174 103,193 115,194 136,185 140,200 154,203 169,218 170,229 168,231 170,241 174,241 175,224 179,224 180,267 190,257 183,214 172,214 160,198 220,97 160,50 94,63 91,83 106,92 100,106 81,90 "/>
  <polygon id="galapagos" class="fil0" points="300,721 299,726 296,729 298,732 302,730 304,727 303,723 300,721 "/>
  <polygon id="banks" class="fil0" points="319,71 319,79 302,97 307,112 319,108 326,98 344,91 359,90 347,78 342,82 337,80 335,75 330,70 319,71 "/>
  <polygon id="prince_x0020_patrick" class="fil0" points="341,45 338,52 356,59 363,49 366,56 370,56 379,45 368,43 364,39 358,45 341,45 "/>
  <polygon id="eglinton" class="fil0" points="374,59 359,65 359,70 378,77 374,82 377,88 388,83 398,83 403,90 411,82 409,75 403,77 402,67 405,62 402,62 397,65 394,67 396,74 392,77 386,76 385,67 374,59 "/>
  <polygon id="mackenzie_x0020_king" class="fil0" points="393,44 392,49 401,53 408,49 407,46 393,44 "/>
  <polygon id="king_x0020_christian" class="fil0" points="400,36 394,38 394,42 409,41 408,37 400,36 "/>
  <polygon id="ellef_x0020_ringnes" class="fil0" points="432,44 431,47 429,51 429,55 438,54 448,62 451,62 451,54 441,43 432,44 "/>
  <polygon id="amund_x0020_ringnes" class="fil0" points="457,54 460,58 457,64 459,70 470,64 470,60 464,53 457,54 "/>
  <polygon id="axel_x0020_heiberg" class="fil0" points="470,43 471,50 484,50 487,53 487,56 475,58 483,69 494,71 510,64 488,31 481,35 481,41 474,38 470,43 "/>
  <polygon id="victoria" class="fil0" points="359,97 341,102 331,111 332,121 351,127 347,136 333,128 329,135 338,141 338,151 351,155 368,154 371,149 383,163 392,160 393,150 399,154 400,145 393,140 393,110 387,104 379,114 359,97 "/>
  <polygon id="prince_x0020_of_x0020_wales" class="fil0" points="418,118 411,115 408,119 415,130 415,140 429,131 429,119 435,114 429,110 421,110 418,118 "/>
  <polygon id="prescott" class="fil0" points="448,114 438,122 440,132 447,132 449,127 454,131 458,130 470,121 448,114 "/>
  <polygon id="cornwallis" class="fil0" points="447,98 445,103 455,106 458,102 447,98 "/>
  <polygon id="bathurst" class="fil0" points="441,79 430,81 424,87 436,87 432,96 435,100 438,99 446,86 441,79 "/>
  <polygon id="devon" class="fil0" points="459,76 453,78 454,86 464,92 464,97 461,100 463,109 500,121 510,125 520,116 508,106 497,109 481,108 476,102 474,86 465,81 459,76 "/>
  <polygon id="baffin" class="fil0" points="489,126 479,125 466,130 459,139 461,164 482,165 501,175 515,190 526,190 523,205 513,221 503,225 495,224 491,221 486,228 488,236 496,236 506,232 515,254 536,268 551,249 539,229 546,221 556,237 574,222 571,214 558,218 550,195 558,181 541,164 532,170 524,152 506,154 501,131 486,141 485,154 477,154 478,143 489,126 "/>
  <polygon id="bylot" class="fil0" points="510,135 507,139 510,144 526,146 516,135 510,135 "/>
  <polygon id="ellesmere" class="fil0" points="495,80 495,85 485,87 488,92 500,97 513,98 522,105 532,100 525,93 534,93 539,87 552,85 552,82 545,78 546,72 566,76 595,64 584,61 587,57 610,57 614,53 568,37 557,33 545,42 531,30 524,30 523,39 514,31 503,34 505,40 521,43 520,51 529,56 550,51 550,58 533,66 522,58 513,59 522,72 518,75 510,68 505,72 510,81 518,81 516,90 509,89 501,79 495,80 "/>
  <polygon id="southhampton" class="fil0" points="453,213 444,224 443,237 451,232 461,232 468,238 474,233 453,213 "/>
  <polygon id="newfoundland" class="fil0" points="563,361 541,383 543,388 571,399 575,392 573,380 563,381 558,376 567,367 563,361 "/>
  <polygon id="canada" class="fil0" points="221,98 225,105 228,113 238,116 246,108 252,111 270,113 283,107 285,125 293,125 293,118 300,118 319,140 331,148 325,158 328,161 352,166 352,177 359,178 360,161 370,159 378,170 394,178 402,179 407,173 408,162 418,157 421,165 412,180 413,188 418,180 428,172 428,160 423,152 425,145 437,138 443,143 444,180 453,172 459,175 451,188 461,191 475,169 487,181 482,203 470,210 459,205 438,209 441,216 435,225 419,228 400,243 383,265 381,272 392,276 397,287 412,303 437,314 431,338 431,345 437,350 446,338 447,317 460,316 467,304 468,285 485,252 506,259 518,275 513,290 521,295 542,281 548,319 567,343 568,355 547,360 536,371 515,366 504,365 486,380 497,377 511,375 513,378 510,390 510,400 517,405 523,403 526,398 531,398 524,411 510,412 504,420 497,420 495,414 505,403 493,407 492,389 488,387 477,392 476,401 450,401 428,416 399,426 396,421 411,399 402,391 397,381 386,373 374,372 353,357 201,332 199,322 185,309 185,298 187,288 186,283 181,278 179,269 193,259 185,213 173,212 162,198 221,98 "/>
  <polygon id="usa" class="fil0" points="201,334 199,343 191,338 187,338 185,347 159,406 166,457 175,461 176,475 194,475 211,488 245,492 248,509 254,513 261,505 267,508 272,533 282,538 289,524 312,508 327,515 340,516 340,508 367,508 373,514 374,528 370,535 374,548 382,548 390,536 387,530 384,517 389,502 411,483 427,479 425,463 448,438 471,434 467,421 490,408 490,391 488,390 480,393 479,403 452,404 431,418 398,428 393,422 408,399 400,392 395,383 385,374 374,374 352,359 201,334 "/>
  <polygon id="haida_x0020_gwaii" class="fil0" points="169,270 165,277 166,282 169,283 168,285 166,286 166,293 169,296 171,294 168,286 170,281 174,275 171,270 169,270 "/>
  <polygon id="vancouver" class="fil0" points="181,312 177,313 184,320 185,328 191,335 196,334 196,325 190,321 181,312 "/>
  <polygon id="honduras" class="fil0" points="327,614 347,614 353,621 349,620 342,620 333,629 329,638 326,636 326,627 321,623 327,614 "/>
  <polygon id="guyana" class="fil0" points="494,669 509,683 503,690 503,694 511,703 510,711 496,716 488,705 490,691 486,681 494,669 "/>
  <polygon id="suriname" class="fil0" points="511,684 515,688 522,684 528,684 528,686 525,692 525,705 512,710 513,702 505,694 505,690 511,684 "/>
  <polygon id="guyane" class="fil0" points="530,685 543,693 536,706 534,709 527,705 527,691 530,685 "/>
  <polygon id="mongolia" class="fil0" points="1329,359 1342,343 1357,350 1367,353 1379,341 1371,335 1377,327 1393,333 1399,342 1409,343 1415,338 1426,338 1429,342 1447,343 1459,331 1475,333 1474,349 1482,351 1490,347 1500,351 1499,354 1493,354 1486,369 1480,369 1459,397 1437,407 1424,408 1413,400 1398,408 1384,404 1380,393 1353,391 1339,368 1333,368 1329,359 "/>
  <polygon id="north_x0020_korea" class="fil0" points="1554,411 1558,413 1559,427 1567,427 1574,419 1572,416 1572,407 1579,399 1575,393 1577,390 1579,383 1575,382 1571,383 1567,396 1561,395 1553,405 1554,411 "/>
  <polygon id="south_x0020_korea" class="fil0" points="1575,420 1589,431 1591,441 1590,447 1584,454 1578,454 1572,441 1570,434 1572,432 1572,429 1568,428 1575,420 "/>
  <polygon id="turkmenistan" class="fil0" points="1157,440 1156,446 1147,446 1147,453 1157,459 1154,468 1154,472 1158,473 1163,466 1175,463 1200,473 1201,480 1215,481 1231,464 1229,459 1218,457 1188,437 1187,431 1176,431 1171,440 1166,440 1157,440 "/>
  <polygon id="uzbekistan" class="fil0" points="1233,465 1239,465 1239,454 1233,450 1244,437 1248,437 1252,442 1263,437 1248,432 1247,429 1244,430 1240,436 1224,435 1213,419 1193,421 1183,412 1170,409 1160,413 1166,432 1166,438 1170,438 1175,429 1188,429 1190,436 1219,455 1230,458 1233,465 "/>
  <polygon id="kirgizstan" class="fil0" points="1250,422 1249,427 1250,431 1268,437 1252,444 1250,442 1246,444 1247,446 1248,446 1260,447 1266,445 1273,435 1283,437 1294,421 1264,417 1260,427 1254,422 1250,422 "/>
  <polygon id="afghanistan" class="fil0" points="1201,482 1204,508 1213,510 1214,515 1208,520 1219,529 1241,521 1243,512 1257,503 1262,483 1266,479 1262,472 1275,463 1274,461 1267,461 1267,467 1258,467 1258,459 1256,456 1251,460 1251,464 1244,467 1232,466 1216,483 1201,482 "/>
  <polygon id="nepal" class="fil0" points="1324,515 1325,524 1342,532 1370,534 1369,527 1350,522 1334,513 1324,515 "/>
  <polygon id="bhutan" class="fil0" points="1376,527 1379,531 1390,532 1389,525 1376,527 "/>
  <polygon id="bangladesh" class="fil0" points="1376,538 1373,543 1380,557 1381,567 1382,570 1391,571 1395,566 1399,568 1400,575 1402,573 1403,564 1400,564 1399,557 1393,557 1391,553 1395,548 1395,546 1384,546 1376,538 "/>
  <polygon id="burma" class="fil0" points="1449,646 1443,637 1447,631 1443,623 1439,622 1438,610 1433,599 1431,601 1427,608 1422,609 1420,605 1419,597 1415,590 1400,576 1404,574 1405,564 1410,555 1412,532 1420,527 1420,519 1425,520 1432,531 1427,543 1431,552 1440,556 1441,566 1454,567 1450,573 1435,579 1433,589 1444,604 1445,612 1442,614 1443,617 1451,629 1451,642 1449,646 "/>
  <polygon id="laos" class="fil0" points="1462,559 1456,561 1452,574 1459,583 1458,593 1459,594 1471,588 1488,606 1487,617 1491,619 1499,612 1499,607 1474,583 1474,579 1477,577 1475,571 1464,569 1462,559 "/>
  <polygon id="vietnam" class="fil0" points="1482,648 1485,652 1485,657 1492,657 1500,646 1508,644 1512,633 1510,615 1502,604 1494,598 1483,579 1491,567 1480,554 1471,554 1463,558 1466,568 1476,570 1479,578 1475,580 1475,582 1500,606 1501,613 1500,636 1482,648 "/>
  <polygon id="iran" class="fil0" points="1105,462 1103,465 1103,469 1106,474 1118,486 1116,492 1114,492 1113,497 1120,505 1126,505 1138,522 1145,523 1150,527 1150,534 1171,546 1179,546 1184,542 1190,542 1193,550 1216,553 1216,545 1224,542 1224,539 1218,531 1205,521 1212,514 1211,511 1203,510 1199,481 1199,474 1175,465 1164,467 1159,474 1153,474 1152,475 1140,475 1126,464 1120,458 1118,458 1113,464 1105,462 "/>
  <polygon id="yemen" class="fil0" points="1110,615 1113,625 1113,633 1121,640 1173,619 1174,613 1165,598 1144,605 1132,617 1118,608 1110,615 "/>
  <polygon id="oman" class="fil0" points="1167,597 1183,588 1186,575 1182,573 1184,558 1187,557 1190,562 1209,572 1209,577 1186,612 1175,612 1167,597 "/>
  <polygon id="emirates" class="fil0" points="1158,563 1160,571 1181,572 1182,557 1186,555 1187,549 1181,551 1173,562 1158,563 "/>
  <polygon id="qatar" class="fil0" points="1155,550 1154,559 1157,562 1160,561 1161,550 1158,549 1155,550 "/>
  <polygon id="kuwait" class="fil0" points="1135,525 1130,522 1126,526 1127,532 1135,535 1135,525 "/>
  <polygon id="saudi" class="fil0" points="1136,538 1151,559 1156,563 1158,572 1181,574 1184,575 1181,587 1166,596 1144,603 1132,614 1118,606 1109,614 1097,594 1089,590 1086,586 1086,576 1057,540 1056,534 1064,534 1074,525 1075,520 1072,517 1078,513 1090,513 1112,531 1125,531 1126,534 1136,538 "/>
  <polygon id="syria" class="fil0" points="1056,486 1055,492 1061,494 1061,509 1067,509 1073,505 1075,504 1089,493 1092,477 1064,480 1062,487 1056,486 "/>
  <polygon id="iraq" class="fil0" points="1094,477 1090,494 1077,505 1077,511 1091,512 1113,529 1125,529 1125,525 1129,520 1136,524 1136,523 1125,507 1119,507 1111,497 1113,490 1115,490 1116,486 1106,476 1094,477 "/>
  <polygon id="jordan" class="fil0" points="1061,511 1055,530 1055,532 1064,532 1073,524 1073,521 1069,517 1076,512 1075,506 1073,507 1068,511 1061,511 "/>
  <polygon id="israel" class="fil0" points="1053,505 1050,516 1054,529 1059,510 1059,506 1053,505 "/>
  <polygon id="cyprus" class="fil0" points="1049,488 1051,490 1043,497 1039,497 1036,495 1037,491 1042,491 1049,488 "/>
  <polygon id="norway" class="fil0" points="989,213 993,210 993,206 990,205 990,201 993,201 993,198 983,195 967,197 966,204 962,203 960,199 952,199 951,206 948,208 946,204 930,217 933,220 927,223 914,250 909,253 910,255 914,258 913,263 905,262 903,260 898,266 895,268 894,274 891,275 884,277 880,288 883,306 886,314 889,318 896,317 906,307 910,301 911,311 918,299 918,265 924,262 925,243 942,220 950,217 953,212 965,215 971,219 973,209 983,203 989,213 "/>
  <polygon id="britain" class="fil0" points="840,314 836,320 837,322 847,322 847,326 844,330 846,338 851,348 855,357 861,359 864,364 863,369 860,371 859,373 862,374 860,378 854,380 843,379 827,386 821,384 837,375 835,373 827,373 832,365 833,359 839,358 838,346 830,345 828,342 828,333 824,334 828,318 837,311 840,314 "/>
  <polygon id="ulster" class="fil0" points="823,341 816,342 816,348 821,351 826,350 828,346 823,341 "/>
  <polygon id="ireland" class="fil0" points="826,352 824,365 806,371 801,371 797,368 797,366 806,360 803,355 804,349 811,349 815,341 814,348 820,353 826,352 "/>
  <polygon id="sweden" class="fil0" points="951,218 955,222 963,222 967,231 968,245 958,253 958,260 950,270 946,271 940,281 940,290 951,298 950,302 946,308 940,313 940,330 931,334 928,340 924,340 921,328 912,313 920,300 920,266 926,263 927,244 943,221 951,218 "/>
  <polygon id="estonia_1" class="fil0" points="994,319 980,317 980,325 994,333 999,332 999,325 994,319 "/>
  <polygon id="hiumaa" class="fil0" points="970,311 967,311 965,313 966,315 970,315 971,313 970,311 "/>
  <polygon id="saaremaa" class="fil0" points="970,320 967,319 961,326 961,330 963,330 967,331 973,325 974,324 970,320 "/>
  <polygon id="poland" class="fil0" points="980,369 982,373 983,376 981,380 978,386 975,388 971,386 969,386 963,388 957,386 947,379 937,374 933,368 932,353 940,347 950,343 954,343 952,346 953,347 970,348 974,347 980,357 978,360 979,365 980,369 "/>
  <polygon id="denmark" class="fil0" points="906,319 897,329 896,336 901,346 907,345 906,336 910,331 910,328 907,320 906,319 "/>
  <polygon id="sjlland" class="fil0" points="916,337 914,337 911,339 911,343 918,343 918,339 916,337 "/>
  <polygon id="gotland" class="fil0" points="952,316 948,320 950,325 954,321 952,316 "/>
  <polygon id="switzerland" class="fil0" points="897,401 888,411 888,412 892,411 896,415 901,413 905,416 907,415 912,408 911,406 906,406 903,401 897,401 "/>
  <polygon id="bosnia" class="fil0" points="944,421 944,423 958,437 963,430 963,427 959,421 944,421 "/>
  <polygon id="malta" class="fil0" points="940,489 936,490 936,494 940,495 941,494 940,489 "/>
  <polygon id="moldova" class="fil0" points="1000,397 1007,407 1006,413 1009,413 1014,404 1008,395 1004,394 1000,397 "/>
  <polygon id="serbia_x0020_and_x0020_montenegro" class="fil0" points="968,412 963,415 961,415 960,420 965,426 965,431 959,440 960,442 963,443 966,439 968,439 971,442 979,439 978,427 968,412 "/>
  <polygon id="thrace" class="fil0" points="1005,444 1005,452 1011,450 1014,448 1014,445 1010,442 1005,444 "/>
 </g>
</svg>
